<svg width="52" height="50" viewBox="0 0 52 50" fill="none" xmlns="http://www.w3.org/2000/svg">
<path d="M11.7044 0.116083C11.5881 0.185887 11.0064 1.23295 10.3898 2.45452C9.5405 4.14146 9.23801 4.64172 9.11004 4.59519C9.00533 4.56028 7.80703 3.92041 6.43421 3.18747C5.04976 2.45452 3.83982 1.84955 3.72348 1.84955C3.44426 1.84955 3.24648 2.08224 3.24648 2.40799C3.24648 2.55923 3.85145 3.75754 4.5844 5.07218C5.31734 6.38683 5.92231 7.49206 5.92231 7.5386C5.92231 7.58513 4.80544 7.86435 3.4559 8.17847C2.09471 8.49259 0.861507 8.81834 0.721899 8.89978C0.431048 9.08592 0.361244 9.53965 0.605558 9.73743C0.686997 9.80723 1.93184 10.2726 3.37446 10.7612C4.80544 11.2499 6.01538 11.6919 6.06192 11.7269C6.10846 11.7618 5.6431 12.39 5.03813 13.1229C3.88636 14.5074 3.73511 14.868 4.20048 15.1589C4.51459 15.345 11.2507 14.2282 11.5648 13.9373C11.8673 13.6465 11.6928 13.088 11.274 13.0415C11.1111 13.0299 9.88952 13.1927 8.53997 13.4138C7.20206 13.6348 6.08519 13.8093 6.06192 13.7861C6.05029 13.7628 6.42258 13.2742 6.91121 12.6925C7.3882 12.1224 7.78376 11.5407 7.78376 11.4011C7.78376 11.0521 7.48127 10.9125 5.25917 10.1679C4.15394 9.80723 3.24648 9.49312 3.24648 9.46985C3.24648 9.44658 4.0725 9.23717 5.08466 9.00449C7.03918 8.53912 7.43474 8.37625 7.43474 8.01559C7.43474 7.88762 6.95774 6.93363 6.38767 5.90983C5.80597 4.8744 5.34061 4.01348 5.36388 3.99022C5.38715 3.97858 6.28297 4.42068 7.34166 5.00238C9.22638 6.0029 9.55213 6.13088 9.83135 5.94473C9.90115 5.8982 10.2967 5.21179 10.6923 4.42068C11.844 2.1055 11.7277 2.14041 12.1116 3.95531C12.7864 7.20121 12.7864 7.20121 13.0656 7.32918C13.275 7.43389 13.5775 7.35245 14.6478 6.92199C15.3691 6.63114 15.9858 6.39846 15.9974 6.42173C16.009 6.43336 15.6018 7.41062 15.1016 8.58566C14.1243 10.8194 14.0894 11.0637 14.6013 11.2964C14.8456 11.4127 14.9271 11.3895 15.1132 11.2033C15.2295 11.087 15.8927 9.69089 16.5675 8.10867C17.5912 5.73532 17.7774 5.20016 17.6843 5.00238C17.4516 4.58355 17.1724 4.63009 15.4506 5.32813C14.5315 5.71205 13.7637 6.0029 13.752 5.99127C13.7287 5.968 12.5537 0.465104 12.5537 0.383666C12.5537 0.372032 12.4723 0.267326 12.3676 0.174253C12.1582 -0.0351592 11.9953 -0.0584273 11.7044 0.116083Z" fill="white"/>
<path d="M29.3049 7.81743C28.8861 7.95703 28.2695 8.27115 27.9321 8.51547L27.3155 8.94593L26.664 8.75978C25.6169 8.4573 24.0812 8.57364 23.0923 9.039C21.3821 9.84175 20.1373 11.5752 20.0209 13.2971L19.9628 14.158L19.2298 14.8677C18.7179 15.3679 18.3689 15.8449 18.0548 16.4615C17.6825 17.2294 17.6243 17.4737 17.5778 18.3811C17.4964 19.9285 17.8454 20.9988 18.8226 22.232L19.2764 22.7904L19.0553 23.3954C18.3456 25.2452 18.8575 27.4557 20.3351 28.9332C22.0685 30.6667 24.9654 30.9459 26.9548 29.5963C27.1875 29.4335 27.4202 29.3055 27.4551 29.3055C27.5016 29.3055 27.8041 29.6312 28.1182 30.0384C29.1653 31.3763 30.6312 32.0977 32.2949 32.0977C33.1558 32.0977 34.0749 31.9348 34.0749 31.7835C34.0749 31.7486 33.6793 30.8412 33.1907 29.7592L32.3065 27.8047L31.7015 27.572C31.3758 27.4557 29.3514 26.6878 27.2108 25.8851C22.6735 24.1749 22.5455 24.0934 22.4641 22.9417C22.4292 22.3716 22.4641 22.1971 22.6968 21.8713C23.5112 20.6847 23.9998 20.6963 27.4318 22.0226C28.8628 22.5694 30.0495 23.0115 30.0728 22.9882C30.096 22.9766 29.7354 22.1506 29.27 21.1617C28.4673 19.4282 28.4324 19.3235 28.4324 18.4626C28.4324 17.6482 28.4556 17.5435 28.793 17.1247C29.7586 15.9147 31.6317 15.8565 32.4926 17.0199C32.6439 17.2177 33.8654 19.7888 35.1917 22.7323L37.6232 28.0839L37.6581 27.351C37.6814 26.9554 37.7279 26.6297 37.7745 26.618C37.821 26.618 38.2282 26.5948 38.6936 26.5715C41.6602 26.4551 43.8474 24.2098 43.8474 21.278C43.8474 19.5794 43.1378 18.1252 41.7999 17.0781L41.0785 16.508L41.1367 15.7751C41.2996 13.7508 40.1129 11.6218 38.3096 10.7143C37.5883 10.3536 36.6576 10.1093 36.0061 10.1093C35.692 10.1093 35.5407 10.0046 35.0754 9.46946C33.5979 7.75925 31.3525 7.11938 29.3049 7.81743Z" fill="white"/>
<path d="M29.9198 17.0314C29.4196 17.2525 29.0705 17.8342 29.0705 18.4741C29.0705 18.858 29.3148 19.5095 30.1176 21.3011C30.6993 22.5809 31.1647 23.6628 31.1647 23.721C31.1647 23.7675 31.0949 23.8723 31.0134 23.9421C30.8854 24.0351 30.0711 23.7792 27.5581 22.8368C25.2197 21.9643 24.1959 21.6269 23.9865 21.6851C23.1837 21.8828 22.8463 22.9299 23.4048 23.5232C23.5909 23.7326 24.9637 24.3027 28.198 25.5127C30.6877 26.455 32.7702 27.2578 32.8051 27.3043C32.8516 27.3508 34.3873 30.7131 36.2371 34.7733C39.8669 42.8008 39.8553 42.7543 39.4946 43.9991C39.1223 45.2789 37.5866 47.152 36.0859 48.1641C35.2715 48.7109 35.0039 48.9785 35.0039 49.2577C35.0039 49.6184 35.2249 49.7812 35.7601 49.7812C37.1329 49.7812 39.7157 48.6411 41.3328 47.3265C42.2868 46.5586 42.4031 46.5005 42.6707 46.6052C42.8336 46.675 43.4735 46.9425 44.0784 47.1869C45.428 47.7453 46.1144 47.9314 46.9637 47.9314C47.4988 47.9431 47.6501 47.8965 47.8246 47.6871C48.1503 47.2799 48.1271 47.245 47.1615 46.5005C46.7775 46.2096 46.1028 45.6279 45.6607 45.2207C44.5671 44.2085 44.6136 44.1271 46.3122 44.0224C47.0335 43.9875 47.9293 43.8944 48.3132 43.8363C49.8606 43.5687 51.6406 42.6263 51.6406 42.0679C51.6406 41.6142 51.4544 41.5444 50.7331 41.7189C49.6046 41.9864 47.7664 42.033 46.5332 41.8236C44.6136 41.4862 42.822 40.5438 42.1239 39.5084C41.9378 39.2408 39.6226 34.2382 36.9817 28.3863C34.3291 22.5343 32.0605 17.6364 31.9441 17.4735C31.4788 16.8802 30.6644 16.7057 29.9198 17.0314Z" fill="white"/>
<path d="M13.8553 18.3936C13.5993 18.5448 11.8891 20.034 10.0626 21.7209C7.8754 23.7336 6.66546 24.769 6.52585 24.7458C6.35134 24.7108 6.32807 24.5131 6.29317 22.989L6.25827 21.2788H4.29212H2.31433V25.0366V28.7944L1.3138 29.7717C0.75537 30.3185 0.231838 30.9234 0.1504 31.1328C-0.210255 31.9705 0.103864 33.099 0.81354 33.6458C1.33707 34.0297 1.55812 34.0879 2.82623 34.181L3.88493 34.2508L3.9431 41.3475L4.00127 48.4443L4.26885 48.8864C4.42009 49.1191 4.79238 49.4681 5.08323 49.6426L5.63003 49.9567L14.4719 49.9916C20.5565 50.0149 23.4999 49.9916 23.9071 49.8985C24.5935 49.7473 25.3032 49.2121 25.5359 48.6653C25.6638 48.3512 25.6987 46.9668 25.6987 41.3824C25.6987 37.5897 25.7453 34.4253 25.7918 34.3555C25.8383 34.2857 26.3735 34.1926 26.9901 34.1577C28.1884 34.0879 28.584 33.9483 29.0959 33.4131C29.3751 33.1223 29.6543 32.5871 29.6543 32.3311C29.6543 32.2846 29.3984 32.0752 29.0726 31.8658C28.7585 31.6564 28.235 31.2143 27.9208 30.8653L27.3391 30.2254L26.7691 30.5162C23.2905 32.2846 18.9975 30.2254 18.1832 26.4094C17.9737 25.3973 17.9854 24.6527 18.2413 23.6754L18.4507 22.8727L18.0435 22.3375C17.5084 21.6395 17.1245 20.7785 16.9616 19.9293C16.6707 18.4401 15.1467 17.6839 13.8553 18.3936Z" fill="white"/>
</svg>
