<svg width="57" height="50" viewBox="0 0 57 50" fill="none" xmlns="http://www.w3.org/2000/svg">
<path d="M56.9851 24.9463C56.9851 26.7038 55.5006 28.0805 53.8181 28.0805H50.6512L50.7205 43.7219C50.7403 47.188 47.8999 50 44.3866 50H32.3027L28.5024 43.7415L36.4989 37.1705C37.2709 36.5358 37.2511 35.3544 36.4594 34.7393L24.8011 25.6981C23.3562 24.5753 21.456 26.3816 22.5446 27.8461L28.5024 35.9305L20.0408 42.8823C19.4371 43.3704 19.2985 44.2296 19.6944 44.8838L22.8019 49.9902H12.6776C9.18412 49.9902 6.34377 47.188 6.34377 43.7415V28.0805H3.16694C1.38553 28.0805 0 26.7135 0 24.9463C0 24.0676 0.2969 23.2865 0.989668 22.603L26.3647 0.781097C27.0575 0.0976372 27.8492 0 28.542 0C29.2348 0 30.0265 0.195274 30.6203 0.68346L41.1702 9.83206V6.24878C41.1702 4.5206 42.5854 3.12439 44.3371 3.12439H47.504C49.2558 3.12439 50.671 4.5206 50.671 6.24878V18.0629L55.8964 22.5932C56.6882 23.2767 57.084 24.0578 56.9851 24.9365V24.9463Z" fill="white"/>
</svg>
