<?xml version="1.0" encoding="UTF-8"?>
<!DOCTYPE svg>
<svg xmlns="http://www.w3.org/2000/svg" version="1.1" width="512px" height="512px"
    style="shape-rendering:geometricPrecision; text-rendering:geometricPrecision; image-rendering:optimizeQuality; fill-rule:evenodd; clip-rule:evenodd"
    xmlns:xlink="http://www.w3.org/1999/xlink">
    <g>
        <path style="opacity:0.961" fill="white"
            d="M 249.5,16.5 C 255.105,15.9081 260.439,16.7415 265.5,19C 284.946,35.1452 304.113,51.6452 323,68.5C 324.755,71.5999 325.589,74.9332 325.5,78.5C 324.205,89.2673 322.372,99.934 320,110.5C 302.167,95.3333 284.333,80.1667 266.5,65C 261.336,60.9569 255.669,59.9569 249.5,62C 179.874,119.957 110.54,178.291 41.5,237C 37.5,239 33.5,239 29.5,237C 25.4533,231.742 21.2866,226.575 17,221.5C 16.1834,218.036 16.5167,214.702 18,211.5C 95.0645,146.26 172.231,81.2596 249.5,16.5 Z" />
    </g>
    <g>
        <path style="opacity:0.967" fill="white"
            d="M 106.5,33.5 C 121.264,33.0334 135.93,33.5334 150.5,35C 151.701,35.9025 152.535,37.0692 153,38.5C 153.667,51.1667 153.667,63.8333 153,76.5C 136,90.8333 119,105.167 102,119.5C 101.333,92.5 101.333,65.5 102,38.5C 103.025,36.313 104.525,34.6464 106.5,33.5 Z" />
    </g>
    <g>
        <path style="opacity:0.991" fill="white"
            d="M 254.5,76.5 C 275.112,93.1072 295.445,110.107 315.5,127.5C 296.549,141.276 277.716,155.276 259,169.5C 257.221,172.613 256.055,175.946 255.5,179.5C 257.649,187.091 259.315,194.758 260.5,202.5C 244.689,204.962 229.022,208.129 213.5,212C 210.238,214.592 207.738,217.759 206,221.5C 204.381,241.782 204.048,262.115 205,282.5C 207.82,293.667 214.987,298.5 226.5,297C 228.246,296.529 229.913,295.862 231.5,295C 241.203,284.965 250.537,274.632 259.5,264C 279.482,262.144 299.482,260.477 319.5,259C 331.787,259.039 338.787,253.039 340.5,241C 338.103,226.786 335.436,212.619 332.5,198.5C 332.818,197.353 333.484,196.519 334.5,196C 350.422,191.353 366.422,187.353 382.5,184C 402.961,200.792 423.127,217.958 443,235.5C 443.994,320.915 443.661,406.248 442,491.5C 441.097,492.701 439.931,493.535 438.5,494C 401.082,494.987 363.749,494.654 326.5,493C 325.299,492.097 324.465,490.931 324,489.5C 323.667,444.5 323.333,399.5 323,354.5C 321.116,344.283 315.282,337.45 305.5,334C 288.709,332.87 271.876,332.37 255,332.5C 239.833,332.667 224.667,332.833 209.5,333C 197.667,335.5 190.5,342.667 188,354.5C 187.667,399.5 187.333,444.5 187,489.5C 186.535,490.931 185.701,492.097 184.5,493C 147.251,494.654 109.918,494.987 72.5,494C 70.3333,493.167 68.8333,491.667 68,489.5C 67.3333,404.833 67.3333,320.167 68,235.5C 130.358,182.635 192.525,129.635 254.5,76.5 Z" />
    </g>
    <g>
        <path style="opacity:0.95" fill="white"
            d="M 433.5,168.5 C 438.127,168.573 442.46,169.74 446.5,172C 461.721,185.523 477.221,198.689 493,211.5C 495,215.5 495,219.5 493,223.5C 488.839,228.661 484.339,233.494 479.5,238C 476.036,238.817 472.702,238.483 469.5,237C 446.5,217.333 423.5,197.667 400.5,178C 411.663,174.964 422.663,171.797 433.5,168.5 Z" />
    </g>
</svg>