<svg width="683" height="683" viewBox="0 0 683 683" fill="none" xmlns="http://www.w3.org/2000/svg">
<g clip-path="url(#clip0_1091_2104)">
<path d="M291.722 42.787L291.716 42.792C230.987 98.327 1.4762 307.482 -0.399439 309.176C-1.02059 309.73 -1.09432 310.435 -1.09172 310.755C-1.08902 311.088 -1.00967 311.357 -0.963503 311.496C-0.86547 311.79 -0.719094 312.063 -0.603498 312.263C-0.35549 312.693 0.00984967 313.224 0.43813 313.808C1.30804 314.995 2.59104 316.607 4.13846 318.481C7.24107 322.238 11.4879 327.146 15.8222 332.014C20.1567 336.883 24.5951 341.732 28.0826 345.371C29.8231 347.187 31.3454 348.72 32.5072 349.809C33.0837 350.349 33.6026 350.809 34.0315 351.145C34.2423 351.31 34.4726 351.477 34.7035 351.614C34.819 351.682 34.9708 351.764 35.1469 351.833C35.2986 351.893 35.6072 352.001 35.9994 352.001C36.3378 352.001 36.6038 351.919 36.7254 351.877C36.8712 351.828 36.9962 351.77 37.0884 351.724C37.2728 351.632 37.4541 351.521 37.6139 351.416C37.9398 351.203 38.3326 350.915 38.7665 350.581C39.6423 349.906 40.8043 348.948 42.163 347.79C44.8863 345.471 48.4711 342.288 52.2806 338.812L52.2809 338.812L62.6866 329.315L63.3327 470.677L63.3327 470.678C63.666 539.201 63.866 575.822 64.2831 596.176C64.6974 616.395 65.3174 620.82 66.6378 624.641C74.254 647.751 88.85 665.265 108.579 674.994C117.963 679.652 123.507 682.126 136.204 683.375C148.694 684.604 168.255 684.668 205.733 684.668C223.934 684.668 240.505 684.635 252.527 684.568C258.537 684.535 263.415 684.493 266.794 684.443C268.481 684.418 269.804 684.39 270.711 684.361C271.16 684.346 271.527 684.33 271.792 684.312C271.917 684.303 272.06 684.291 272.19 684.273C272.242 684.266 272.373 684.247 272.522 684.205C272.581 684.188 272.769 684.134 272.983 684.013C273.089 683.952 273.298 683.822 273.502 683.59C273.716 683.345 273.999 682.894 273.999 682.268C273.999 682.009 273.948 681.803 273.935 681.752L273.934 681.748C273.913 681.663 273.89 681.59 273.873 681.54C273.839 681.437 273.799 681.331 273.761 681.235C273.683 681.04 273.577 680.793 273.452 680.512C273.2 679.945 272.841 679.173 272.404 678.257C271.531 676.426 270.326 673.983 268.989 671.375C264.438 662.006 260.36 647.568 258.648 635.47C258.648 635.465 258.647 635.46 258.646 635.455L257.851 629.087L257.632 627.335H255.866H199.599C181.073 627.335 166.558 627.201 156.248 626.952C151.091 626.827 147.001 626.674 143.993 626.494C140.923 626.311 139.178 626.11 138.535 625.941C135.525 625.067 131.851 622.591 128.63 619.37C125.405 616.145 122.927 612.465 122.056 609.453C122.055 609.45 122.051 609.432 122.043 609.396C122.035 609.352 122.024 609.291 122.011 609.21C121.986 609.048 121.959 608.831 121.93 608.554C121.873 607.998 121.816 607.25 121.76 606.294C121.649 604.383 121.546 601.708 121.453 598.216C121.266 591.237 121.116 581.056 120.999 567.334C120.766 539.894 120.666 498.335 120.666 440.003L291.722 42.787ZM291.722 42.787C304.725 30.9839 316.664 20.2459 325.42 12.4569C329.797 8.56323 333.384 5.40222 335.913 3.21228C337.176 2.11884 338.184 1.25916 338.899 0.669189C339.253 0.376526 339.553 0.135803 339.782 -0.0375977C339.893 -0.121399 340.015 -0.21106 340.133 -0.287598C340.189 -0.32373 340.281 -0.381409 340.392 -0.437378C340.447 -0.465149 340.54 -0.509277 340.658 -0.550293C340.747 -0.58136 340.999 -0.665405 341.333 -0.665405C341.656 -0.639343 342.096 -0.514832 342.221 -0.458801C342.286 -0.425293 342.388 -0.367126 342.43 -0.340942C342.506 -0.292725 342.57 -0.24585 342.604 -0.219849C342.682 -0.161804 342.767 -0.0932617 342.848 -0.0267944C343.016 0.111023 343.245 0.305786 343.526 0.548828C344.092 1.03796 344.912 1.75873 345.967 2.6936C348.078 4.56519 351.151 7.31433 355.063 10.8291C362.889 17.8596 374.083 27.9635 387.676 40.2598C414.863 64.8527 451.652 98.2204 490.294 133.321C567.576 203.52 652.281 280.658 682.42 308.396L682.451 308.424L682.48 308.454C683.707 309.681 683.376 311.273 682.948 312.309C682.5 313.392 681.637 314.704 680.424 316.297C677.963 319.527 673.602 324.492 666.683 332.143L666.678 332.148C661.871 337.423 657.392 342.235 654.044 345.734C652.372 347.481 650.971 348.913 649.947 349.913C649.439 350.41 649.002 350.821 648.663 351.117C648.497 351.261 648.321 351.407 648.153 351.527C648.072 351.585 647.951 351.668 647.808 351.744C647.75 351.774 647.347 352.001 646.799 352.001C646.438 352.001 646.157 351.907 646.042 351.865C645.896 351.813 645.771 351.753 645.679 351.706C645.494 351.61 645.309 351.494 645.142 351.383C644.801 351.157 644.382 350.848 643.913 350.484C642.967 349.749 641.702 348.706 640.218 347.439C637.245 344.903 633.326 341.42 629.18 337.608C629.18 337.608 629.18 337.607 629.179 337.607L617.268 326.74L616.666 368.03L615.999 413.897L615.904 420.413L612.328 414.966L586.063 374.97L586.061 374.966L559.664 334.97L559.338 334.476L559.333 333.885L559.066 303.227L559.066 303.219L558.677 273.427L450.117 174.278C420.121 146.882 392.66 122.053 372.615 104.108C362.592 95.1349 354.428 87.8865 348.73 82.9001C345.88 80.4055 343.654 78.4841 342.125 77.1977C341.688 76.8303 341.314 76.519 341 76.2634C340.647 76.5674 340.217 76.9426 339.709 77.3879C338.146 78.7582 335.885 80.7672 332.999 83.3483C327.228 88.5094 318.973 95.9441 308.84 105.102C288.576 123.416 260.811 148.615 230.412 176.28L120.799 276.218L120.666 440.001L291.722 42.787Z" fill="black" stroke="black" stroke-width="4"/>
<path d="M480.783 370.61L480.796 370.607C500.188 365.205 523.468 371.698 537.827 386.333L537.834 386.34L537.841 386.348C538.369 386.897 539.352 388.2 540.636 389.976C541.962 391.812 543.708 394.296 545.811 397.331C550.017 403.402 555.668 411.708 562.274 421.505C575.487 441.101 592.532 466.686 609.501 492.347C626.469 518.008 643.364 543.751 656.277 563.664C662.733 573.62 668.196 582.123 672.177 588.432C674.167 591.586 675.79 594.199 676.984 596.173C678.145 598.095 678.973 599.532 679.294 600.257L679.3 600.269C680.712 603.518 682.617 610.213 683.437 614.996L683.437 614.998C688.693 645.839 666.342 677.369 635.038 683.299L635.022 683.302L635.005 683.305C630.941 684.005 615.967 684.667 601.866 684.667H575.999H573.999V682.667V656V629.334V627.334H575.999H601.332C613.392 627.334 619.593 627.298 622.967 626.96C624.668 626.79 625.377 626.563 625.699 626.39C625.878 626.294 625.976 626.217 626.229 625.735L626.236 625.722L626.243 625.709C626.516 625.209 626.71 624.585 626.781 624.019C626.816 623.741 626.816 623.517 626.798 623.36C626.792 623.304 626.785 623.266 626.78 623.242C626.447 622.736 625.256 620.916 623.326 617.97C614.425 604.374 589.809 566.775 561.261 523.366L561.261 523.365C534.324 482.359 518.069 457.778 508.267 443.499C503.359 436.35 500.1 431.829 497.939 429.129C497 427.955 496.309 427.178 495.811 426.69C495.73 426.78 495.643 426.879 495.548 426.987C494.801 427.846 493.755 429.171 492.376 431.022C489.624 434.716 485.638 440.376 480.233 448.279C469.428 464.08 453.003 488.767 429.536 524.433L429.536 524.434C411.671 551.564 395.408 576.459 383.612 594.719C377.714 603.85 372.936 611.317 369.634 616.572C367.982 619.202 366.706 621.268 365.846 622.709C365.415 623.432 365.098 623.98 364.894 624.355C364.85 624.437 364.813 624.506 364.784 624.563C364.772 625.323 364.907 625.507 364.98 625.589C365.14 625.77 365.69 626.176 367.53 626.517C371.17 627.192 378.042 627.334 390.932 627.334H415.999H417.999V629.334V656.134V682.934V684.969L415.964 684.933L385.697 684.4L385.693 684.4C358.365 683.869 354.344 683.623 347.135 680.796L347.131 680.794C330.068 674.051 316.577 660.155 310.514 643.069L310.511 643.061L310.509 643.054C308.538 637.352 307.729 629.892 307.933 622.611C308.137 615.333 309.36 608.003 311.618 602.568C311.965 601.732 312.818 600.191 314.005 598.169C315.223 596.096 316.869 593.388 318.88 590.143C322.902 583.652 328.403 574.977 334.895 564.86C347.88 544.624 364.842 518.596 381.895 492.684C398.947 466.772 416.094 440.969 429.445 421.184C436.12 411.292 441.851 402.898 446.149 396.744C448.298 393.668 450.094 391.143 451.475 389.267C452.81 387.453 453.859 386.102 454.464 385.507L454.466 385.505C461.129 378.981 471.164 373.359 480.783 370.61Z" fill="black" stroke="black" stroke-width="4"/>
<path d="M469.332 600.668H467.332V598.668V550.668V502.668V500.668H469.332H495.999H522.665H524.665V502.668V550.668V598.668V600.668H522.665H495.999H469.332Z" fill="black" stroke="black" stroke-width="4"/>
<path d="M469.332 684.668H467.332V682.668V656.001V629.335V627.335H469.332H495.999H522.665H524.665V629.335V656.001V682.668V684.668H522.665H495.999H469.332Z" fill="black" stroke="black" stroke-width="4"/>
</g>
<defs>
<clipPath id="clip0_1091_2104">
<rect width="682.667" height="682.667" fill="white"/>
</clipPath>
</defs>
</svg>
