<svg width="57" height="50" viewBox="0 0 57 50" fill="none" xmlns="http://www.w3.org/2000/svg">
<g clip-path="url(#clip0_949_2483)">
<path d="M29.9627 0.595215C28.869 -0.195801 27.3846 -0.195801 26.2908 0.595215L9.10334 13.0952C8.00959 13.896 7.55061 15.3022 7.97053 16.5913C8.39045 17.8804 9.58186 18.7495 10.9393 18.7495H12.5018V25.8784C12.6678 25.9761 12.824 26.0737 12.9803 26.1812C14.7381 27.3921 16.8963 28.1636 18.7615 28.1636C20.8221 28.1636 22.8631 27.3335 24.5428 26.1812C26.701 24.6675 29.5819 24.6675 31.7401 26.1812C33.5369 27.4214 35.6073 28.1636 37.5213 28.1636C39.3768 28.1636 41.5448 27.3921 43.3026 26.1812C43.449 26.0835 43.5955 25.9858 43.742 25.898L43.7127 18.7495H45.3143C46.6717 18.7495 47.8631 17.8804 48.283 16.5913C48.703 15.3022 48.244 13.896 47.1502 13.0952L29.9627 0.595215ZM26.3201 30.2632C24.1229 31.7769 21.4373 32.812 18.7518 32.812C16.1248 32.812 13.3514 31.7573 11.1932 30.2632C10.0311 29.4331 8.44905 29.5015 7.36506 30.4292C5.95881 31.5913 4.19124 32.48 2.42366 32.8901C0.74397 33.2808 -0.300952 34.9605 0.089673 36.6401C0.480298 38.3198 2.15999 39.3647 3.83967 38.9741C6.23225 38.4175 8.22444 37.3628 9.52327 36.5327C12.3553 38.0562 15.5291 39.062 18.7518 39.062C21.867 39.062 24.6698 38.0952 26.6033 37.2163C27.1698 36.9526 27.6873 36.6987 28.1268 36.4644C28.5662 36.6987 29.074 36.9624 29.6502 37.2163C31.5838 38.0952 34.3865 39.062 37.5018 39.062C40.7244 39.062 43.8983 38.0562 46.7303 36.5425C48.0389 37.3628 50.0213 38.4272 52.4139 38.9839C54.0936 39.3745 55.7733 38.3296 56.1639 36.6499C56.5545 34.9702 55.5096 33.2905 53.8299 32.8999C52.0623 32.4897 50.2948 31.6011 48.8885 30.439C47.8045 29.5112 46.2225 29.4526 45.0604 30.2729C42.9119 31.7573 40.1287 32.812 37.5018 32.812C34.8162 32.812 32.1307 31.7769 29.9334 30.2632C28.8494 29.4917 27.4041 29.4917 26.3201 30.2632ZM37.5018 43.7495C34.8162 43.7495 32.1307 42.7144 29.9334 41.2007C28.8494 40.4292 27.4041 40.4292 26.3201 41.2007C24.1229 42.7144 21.4373 43.7495 18.7518 43.7495C16.1248 43.7495 13.3514 42.6948 11.1932 41.2007C10.0311 40.3706 8.44905 40.439 7.36506 41.3667C5.95881 42.5288 4.19124 43.4175 2.42366 43.8276C0.74397 44.2183 -0.300952 45.898 0.089673 47.5776C0.480298 49.2573 2.15999 50.3022 3.83967 49.9116C6.23225 49.355 8.22444 48.3003 9.52327 47.4702C12.3553 48.9937 15.5291 49.9995 18.7518 49.9995C21.867 49.9995 24.6698 49.0327 26.6033 48.1538C27.1698 47.8901 27.6873 47.6362 28.1268 47.4019C28.5662 47.6362 29.074 47.8999 29.6502 48.1538C31.5838 49.0327 34.3865 49.9995 37.5018 49.9995C40.7244 49.9995 43.8983 48.9937 46.7303 47.48C48.0389 48.3003 50.0213 49.3647 52.4139 49.9214C54.0936 50.312 55.7733 49.2671 56.1639 47.5874C56.5545 45.9077 55.5096 44.228 53.8299 43.8374C52.0623 43.4272 50.2948 42.5386 48.8885 41.3765C47.8045 40.4585 46.2225 40.3901 45.0604 41.2104C42.9119 42.6948 40.1287 43.7495 37.5018 43.7495Z" fill="white"/>
</g>
<defs>
<clipPath id="clip0_949_2483">
<rect width="56.25" height="50" fill="white"/>
</clipPath>
</defs>
</svg>
