<?xml version="1.0" encoding="utf-8"?>
<!-- Generator: Adobe Illustrator 24.0.0, SVG Export Plug-In . SVG Version: 6.00 Build 0)  -->
<svg version="1.1" id="Capa_1" xmlns="http://www.w3.org/2000/svg" xmlns:xlink="http://www.w3.org/1999/xlink" x="0px" y="0px"
	 viewBox="0 0 31 31.2" style="enable-background:new 0 0 31 31.2;" xml:space="preserve">
<g>
	<path d="M28.9,21.9c-1.4-2.1-3.9-2.9-6.2-2.3l-4.2-4.2l-0.9,0.9l2.8,2.8c0.4,0.4,0.4,1.1,0,1.5c-0.2,0.2-0.5,0.3-0.7,0.3
		c-0.3,0-0.5-0.1-0.7-0.3l-2.8-2.9l-0.9,0.9l3.9,3.9c-1,1.8-0.9,4.1,0.4,5.9c1.2,1.8,3.2,2.6,5.2,2.5L22,27.1
		c-0.4-0.5-0.2-1.2,0.3-1.6l2.9-2c0.5-0.4,1.2-0.2,1.6,0.3l2.6,3.8C30.2,25.9,30.1,23.7,28.9,21.9z M10.9,10.1
		c0.3,0,0.5,0.1,0.7,0.3l3.2,3.2l0.9-0.9l-4.1-4.1c0.9-1.8,0.8-4.1-0.4-5.8C9.9,0.9,7.9,0.1,5.9,0.3L8.6,4c0.4,0.5,0.2,1.2-0.3,1.6
		l-2.8,2C4.9,8,4.2,7.8,3.9,7.3L1.2,3.6c-0.8,1.8-0.7,4,0.5,5.7c1.4,2.1,4,2.9,6.3,2.2l4.4,4.4l0.9-0.9l-3.2-3.2
		c-0.4-0.4-0.4-1.1,0-1.5C10.4,10.2,10.6,10.1,10.9,10.1z"/>
	<path d="M14.1,21.6c-0.2,0.2-0.6,0.2-0.8,0l-3.7-3.7c-0.2-0.2-0.2-0.6,0-0.8l0.2-0.2c0.2-0.2,0.6-0.2,0.8,0l3.7,3.7
		c0.2,0.2,0.2,0.6,0,0.8L14.1,21.6z"/>
	<path d="M12.8,21.5l-7,7.6l-0.9,0.9c-0.3,0.3-0.6,0.5-0.9,0.6c-0.3,0.1-0.5,0.2-0.8,0.2c-0.1,0-0.2,0-0.3,0c-0.7,0-1.4-0.3-2-0.8
		c-1.1-1.1-1.1-2.8,0-3.9l0.9-0.9l7.6-7L12.8,21.5z"/>
	<path d="M30.7,1.9L29,4.5l-1.5,0.6L14.4,18.4l-1.6-1.6L25.9,3.5l0.6-1.5l2.6-1.7l0.1,0.1l-1.9,1.6c-0.3,0.3-0.2,1.1,0.2,1.4
		c0.3,0.3,1.1,0.5,1.4,0.2l1.6-2L30.7,1.9z"/>
</g>
</svg>
