<svg width="116" height="116" viewBox="0 0 116 116" fill="none" xmlns="http://www.w3.org/2000/svg">
<g filter="url(#filter0_d_1060_2205)">
<g clip-path="url(#clip0_1060_2205)">
<rect x="8" y="4" width="100" height="100" rx="12" fill="#FF0000"/>
<path d="M44.7209 9.64391C32.5139 14.9955 31.9084 15.2884 31.5764 15.933C31.2444 16.558 31.2444 17.4564 31.303 30.8548C31.3616 43.5111 31.4202 45.2689 31.7131 46.5775C32.5139 50.015 34.3889 53.3939 36.8499 55.7963C37.9241 56.8509 50.7756 66.3041 55.8147 69.7611C57.2795 70.7572 58.4123 70.8939 59.5647 70.1908C61.7327 68.8627 77.8655 57.0267 79.0569 55.8744C81.5569 53.472 83.4709 50.0736 84.2913 46.5775C84.5842 45.2689 84.6428 43.5697 84.7014 30.8548C84.76 17.4564 84.76 16.558 84.428 15.9134C84.0959 15.2689 83.51 14.9955 71.2834 9.62438C64.2522 6.53844 58.2756 4.01891 58.0022 4.01891C57.7288 4.03844 51.7522 6.55798 44.7209 9.64391ZM69.6233 12.5736L81.1467 17.6127V31.6556C81.1467 47.515 81.2444 46.4408 79.5452 49.7416C78.0413 52.6713 77.1819 53.433 67.0647 60.7181L58.0022 67.2611L51.6155 62.6517C38.2561 53.0228 38.0608 52.8666 36.4592 49.7416C34.76 46.4408 34.8577 47.515 34.8577 31.6556V17.6127L46.3811 12.5736C52.7288 9.80016 57.9436 7.53454 58.0022 7.51501C58.0608 7.51501 63.2952 9.80016 69.6233 12.5736Z" fill="white" stroke="white"/>
<path d="M48.332 15.3486C43.1758 17.6142 38.7617 19.6455 38.5274 19.8603L38.0781 20.2705V32.3799C38.0781 45.8564 38.0586 45.6611 39.4063 48.2392C39.7969 48.9814 40.6172 50.1142 41.2031 50.7197C41.8281 51.3642 45.4805 54.1572 49.8945 57.3213C56.418 62.0283 57.5899 62.8096 58.0977 62.751C58.8985 62.6533 72.8828 52.5947 74.6016 50.876C75.3633 50.1142 76.1445 49.0596 76.5938 48.2392C77.9414 45.6611 77.9219 45.8369 77.9219 32.3799V20.2705L77.4727 19.8603C77.0235 19.4306 58.4492 11.2275 57.9805 11.2275C57.8242 11.2471 53.4883 13.083 48.332 15.3486ZM66.457 18.4541L74.6211 22.0283L74.5625 33.4736L74.5039 44.9189L73.957 46.0713C73.6641 46.7158 73.1172 47.6142 72.7266 48.083C72.043 48.9033 58.4688 58.8838 58.0195 58.8838C57.6094 58.8838 44.4453 49.3135 43.5664 48.376C43.0977 47.8681 42.4336 46.8916 42.1016 46.1885L41.4961 44.9189L41.4375 33.4736L41.3789 22.0478L49.6406 18.415C54.1914 16.4228 58 14.8017 58.0977 14.8408C58.2149 14.8603 61.9649 16.501 66.457 18.4541Z" fill="white" stroke="white"/>
<path d="M67.376 24.1759C67.0635 24.3322 64.6221 27.8087 60.6182 33.7853C57.1807 38.9415 54.2901 43.1603 54.2315 43.1603C54.1729 43.1603 53.001 42.3204 51.6338 41.3048C50.2666 40.2892 48.9385 39.3322 48.6846 39.1954C47.3369 38.4532 45.7354 40.1525 46.5557 41.4025C46.9268 41.9689 53.6065 47.047 54.2315 47.2423C55.3643 47.6134 55.3447 47.6329 62.708 36.5782C66.5557 30.797 69.7197 25.9337 69.7197 25.7579C69.7197 25.1525 69.1338 24.3517 68.5283 24.1368C68.1768 24.0197 67.9033 23.922 67.8838 23.922C67.8643 23.922 67.6494 24.0392 67.376 24.1759Z" fill="white" stroke="white"/>
<path d="M11.9078 47.9249C9.48591 48.6671 7.76715 51.2452 8.07965 53.6475C8.25544 54.9171 15.2086 70.21 16.5172 72.1827C17.1422 73.1397 19.3492 75.5421 23.1578 79.3897L28.8414 85.1514L28.4312 85.835C28.0406 86.4991 28.0211 86.753 28.0211 94.0382C28.0211 102.437 28.0015 102.261 29.4273 103.355L30.1304 103.901L40.1109 103.96C51.3023 104.019 51.2633 104.019 52.2984 102.671L52.8258 101.987L52.8843 94.1358L52.9429 86.3038L52.4937 85.6397C51.9078 84.7999 51.1851 84.2725 50.3648 84.0968L49.7008 83.96L49.5836 80.8546C49.525 79.1358 49.3687 77.3389 49.2515 76.8507C48.0211 71.9093 45.3062 68.2179 41.5953 66.4796C36.4976 64.0772 34.5445 62.8858 31.732 60.5225C29.4273 58.589 28.4898 58.1983 26.0679 58.1983C24.3492 58.1983 23.9781 58.2569 22.9625 58.7452C22.3375 59.0382 21.7906 59.253 21.7711 59.2335C21.7515 59.1944 21.0093 57.4561 20.1109 55.3663C18.0015 50.3663 17.7476 49.878 16.7515 49.0382C15.5015 47.964 13.3922 47.4757 11.9078 47.9249ZM14.4859 51.46C14.8375 51.714 15.5797 53.2374 16.8882 56.2843C19.1734 61.6554 19.8765 63.0811 21.0484 64.7413C22.2984 66.4991 30.814 75.0343 31.4781 75.21C32.6109 75.4639 33.7632 74.2921 33.4898 73.1788C33.4117 72.8468 31.5562 70.835 28.6265 67.8663C26.0093 65.2296 23.7632 62.8858 23.6461 62.6515C23.4507 62.2608 23.4898 62.1827 24.1929 61.8116C25.1304 61.3429 26.6539 61.3038 27.6304 61.6944C28.0015 61.8507 28.9586 62.5343 29.7203 63.1788C32.6109 65.6202 35.0328 67.0655 40.4234 69.585C42.5523 70.5811 44.6031 73.2569 45.6382 76.3624C46.0875 77.71 46.1656 78.335 46.2437 81.0108L46.3218 84.0772H39.5054H32.7086L26.1461 77.4757C22.5328 73.8624 19.3101 70.4444 18.9781 69.9171C18.1578 68.589 11.3218 53.4913 11.3218 53.003C11.3218 51.46 13.2945 50.503 14.4859 51.46ZM49.6031 94.0382V100.679L40.482 100.64L31.3414 100.581L31.2828 93.9796L31.2437 87.3975H40.4234H49.6031V94.0382Z" fill="white" stroke="white"/>
<path d="M42.2776 92.5156C41.2815 93.082 41.0862 94.332 41.8869 95.1133C42.2971 95.543 42.5315 95.6016 43.8401 95.6016C45.1487 95.6016 45.383 95.543 45.7932 95.1133C46.5159 94.4102 46.4573 93.4336 45.676 92.7891C45.1682 92.3594 44.8948 92.2812 43.8791 92.2812C43.2151 92.2812 42.4924 92.3984 42.2776 92.5156Z" fill="white"/>
<path d="M100.578 48.1602C99.4453 48.668 98.5078 49.5664 97.9414 50.6797C97.707 51.168 96.7695 53.2773 95.8906 55.3672C94.9922 57.457 94.25 59.1953 94.2109 59.2344C94.1914 59.2734 93.957 59.1758 93.7031 59.0195C92.0039 57.9453 88.8789 57.8086 86.9062 58.7266C86.3203 59 84.8555 60.0156 83.6445 60.9922C81.0859 63.0625 78.6055 64.5664 75.5195 65.9336C72.0625 67.457 70.0312 69.332 68.3711 72.5352C66.9453 75.3281 66.5547 76.9102 66.418 80.6602L66.3008 83.9609L65.6367 84.0977C64.8164 84.2734 64.0938 84.8008 63.5078 85.6406L63.0586 86.3047L63.1172 94.1172L63.1758 101.949L63.6445 102.613C63.8984 102.965 64.4648 103.434 64.9141 103.629C65.6562 103.961 66.3789 104 75.5391 104C84.9336 104 85.3828 103.98 86.1055 103.609C87.043 103.141 87.6289 102.437 87.8828 101.422C88.0195 100.953 88.0781 98.1016 88.0391 93.5898C87.9805 86.8125 87.9609 86.5 87.5703 85.8359L87.1602 85.1523L92.8438 79.3906C96.6523 75.543 98.8594 73.1406 99.4844 72.1836C100.891 70.0742 107.805 54.7617 107.941 53.4922C108.176 51.3437 107.004 49.2344 105.031 48.2578C103.723 47.6133 101.887 47.5547 100.578 48.1602ZM103.684 51.3437C104.23 51.6367 104.68 52.3789 104.68 53.0234C104.68 53.4922 97.8047 68.6289 97.0039 69.918C96.6719 70.4453 93.4492 73.8633 89.8555 77.4766L83.3125 84.0781H76.4961H69.6797L69.7578 81.0117C69.8359 78.3359 69.9141 77.7109 70.3633 76.3633C71.3984 73.2578 73.4492 70.582 75.5781 69.5859C80.9883 67.0664 83.332 65.6602 86.3789 63.1016C87.1992 62.418 88.1953 61.7344 88.5859 61.6172C89.5039 61.3047 91.418 61.4609 92.0625 61.8711C92.5117 62.1641 92.5508 62.2812 92.3555 62.6523C92.2188 62.8867 90.0312 65.1914 87.4727 67.7695C84.9141 70.3477 82.7266 72.7109 82.6289 73.0039C82.1016 74.3711 83.5273 75.6211 84.8555 74.9766C85.6758 74.6055 93.5664 66.6172 94.8164 64.918C95.9883 63.3164 96.7695 61.7734 99.1133 56.2852C100.422 53.2578 101.164 51.7148 101.516 51.4609C102.082 50.9922 102.922 50.9531 103.684 51.3437ZM84.7188 93.9805L84.6602 100.582L75.5391 100.641L66.3984 100.68V94.0391V87.3984H75.5781H84.7578L84.7188 93.9805Z" fill="white" stroke="white"/>
<path d="M70.3276 92.7891C69.5464 93.4336 69.4878 94.4102 70.2104 95.1133C70.6206 95.543 70.855 95.6016 72.1635 95.6016C73.4721 95.6016 73.7065 95.543 74.1167 95.1133C74.4487 94.8008 74.605 94.4297 74.605 94C74.5854 92.8086 73.8237 92.2812 72.0854 92.2812C71.1284 92.2812 70.8159 92.3594 70.3276 92.7891Z" fill="white"/>
</g>
<rect x="6" y="2" width="104" height="104" rx="14" stroke="#FF0000" stroke-width="4"/>
</g>
<defs>
<filter id="filter0_d_1060_2205" x="0" y="0" width="116" height="116" filterUnits="userSpaceOnUse" color-interpolation-filters="sRGB">
<feFlood flood-opacity="0" result="BackgroundImageFix"/>
<feColorMatrix in="SourceAlpha" type="matrix" values="0 0 0 0 0 0 0 0 0 0 0 0 0 0 0 0 0 0 127 0" result="hardAlpha"/>
<feOffset dy="4"/>
<feGaussianBlur stdDeviation="2"/>
<feComposite in2="hardAlpha" operator="out"/>
<feColorMatrix type="matrix" values="0 0 0 0 0 0 0 0 0 0 0 0 0 0 0 0 0 0 0.25 0"/>
<feBlend mode="normal" in2="BackgroundImageFix" result="effect1_dropShadow_1060_2205"/>
<feBlend mode="normal" in="SourceGraphic" in2="effect1_dropShadow_1060_2205" result="shape"/>
</filter>
<clipPath id="clip0_1060_2205">
<rect x="8" y="4" width="100" height="100" rx="12" fill="white"/>
</clipPath>
</defs>
</svg>
