<svg width="61" height="62" viewBox="0 0 61 62" fill="none" xmlns="http://www.w3.org/2000/svg">
<path d="M15.3475 1.25527C10.861 2.21097 7.01167 5.44972 5.32593 9.65743L4.96755 10.56H3.25526H1.54297L1.56952 14.1704L1.60934 17.7941L3.94548 17.8339L6.2949 17.8605L6.36127 19.8913C6.42764 22.1346 6.62674 23.0239 7.4497 24.7495C9.00271 28.0015 12.0556 30.4173 15.6395 31.2137C17.0863 31.5322 19.3693 31.5057 20.856 31.1473C24.4133 30.2845 27.4795 27.736 28.9529 24.4043C29.6298 22.9044 29.8289 21.8956 29.9085 19.8117L29.9882 17.8605H32.2845H34.5941V14.2103V10.56H32.9349C31.4616 10.56 31.2625 10.5335 31.1828 10.3211C31.143 10.2016 30.8775 9.60434 30.5988 9.00703C29.1652 5.88774 26.2583 3.12684 23.1125 1.91895C20.7631 1.00308 17.75 0.750878 15.3475 1.25527ZM21.002 3.06048C22.263 3.37904 24.254 4.2551 24.3337 4.52057C24.3469 4.58693 23.6036 5.96738 22.6745 7.57348L20.9887 10.4937L18.1349 10.5335L15.2811 10.56L13.8874 8.14425C13.1175 6.81689 12.3344 5.44972 12.1353 5.1046L11.7769 4.48075L12.6662 4.01617C14.4847 3.07375 15.8253 2.76846 18.0818 2.74191C19.3959 2.72864 19.9401 2.79501 21.002 3.06048ZM11.8167 7.95842C12.5866 9.29905 13.2237 10.4406 13.2237 10.4804C13.2237 10.5202 11.7902 10.56 10.038 10.56C8.28593 10.56 6.85239 10.5335 6.85239 10.5069C6.85239 10.2946 7.47625 9.06012 7.99392 8.26371C8.47176 7.52039 10.2106 5.51608 10.3832 5.51608C10.3964 5.51608 11.0468 6.61779 11.8167 7.95842ZM27.6388 7.40093C28.183 8.09115 29.4042 10.2149 29.4174 10.4538C29.4174 10.5202 27.9839 10.56 26.2318 10.56C24.4797 10.56 23.0461 10.5069 23.0461 10.4406C23.0461 10.3477 23.4974 9.53797 25.3292 6.39214L25.8601 5.48954L26.4574 6.0603C26.7893 6.37886 27.3202 6.98945 27.6388 7.40093ZM32.9747 14.1704L32.9349 16.0686L18.1084 16.1084L3.26853 16.1349V14.2103V12.2856H18.1349H33.0146L32.9747 14.1704ZM28.1963 19.7453C28.1432 21.1921 28.0503 21.8691 27.8246 22.5726C26.776 25.9175 24.0682 28.5191 20.6702 29.435C19.3428 29.7934 16.9934 29.82 15.7457 29.4881C13.3299 28.8377 11.2592 27.4573 9.97167 25.6255C8.63105 23.7407 8.11338 22.1478 7.96737 19.5197L7.87445 17.8605H18.0685H28.2626L28.1963 19.7453Z" fill="white" stroke="white" stroke-width="2"/>
<path d="M46.0101 19.4671C43.6607 19.8785 41.5502 21.0068 39.7715 22.7722C38.4442 24.0995 37.9132 24.8827 37.1832 26.5817C35.0594 31.5327 36.9044 37.612 41.444 40.6384C42.612 41.4082 44.2845 42.2047 44.4305 42.0454C44.5234 41.9392 44.9482 40.7047 44.9482 40.5322C44.9482 40.4791 44.8818 40.426 44.7889 40.426C44.404 40.426 42.3997 39.311 41.59 38.6341C40.0104 37.32 38.6565 35.1298 38.245 33.1919C37.3026 28.732 39.3733 24.2721 43.3554 22.1881C44.9482 21.3519 45.9835 21.113 48.0011 21.113C49.5143 21.113 49.9523 21.1661 50.7886 21.4183C53.6291 22.3076 55.6599 24.0464 56.974 26.6879C57.6775 28.1081 57.9563 29.3028 57.9563 30.9752C57.9563 34.7847 55.806 38.2757 52.4477 39.8951C51.0673 40.5587 50.0851 40.8109 48.5055 40.9171L47.2047 40.9968L47.1781 43.9302L47.1383 46.8637L46.0499 46.9035L44.9482 46.9433V53.965V61H48.0011H51.054V53.965V46.9433L49.9656 46.9035L48.8639 46.8637L48.8241 44.7134L48.7975 42.563L49.2886 42.4834C52.3283 42.0188 54.5848 40.8906 56.5227 38.8597C62.4958 32.6079 59.6287 22.2412 51.2531 19.7856C49.9125 19.3874 47.3242 19.2281 46.0101 19.4671ZM49.3285 53.965V59.2744H48.0011H46.6738V53.965V48.6556H48.0011H49.3285V53.965Z" fill="white" stroke="white" stroke-width="2"/>
<path d="M48 23.582V24.4315L49.0088 24.6041C51.5706 25.0023 53.6545 26.8739 54.3049 29.3428C54.4111 29.7808 54.504 30.325 54.504 30.5639V31.002H55.3668H56.2296V30.4976C56.2163 28.8118 55.2606 26.7146 53.8404 25.2811C52.3803 23.8077 50.7874 23.0245 48.8495 22.8254L48 22.7325V23.582Z" fill="white" stroke="white" stroke-width="2"/>
<path d="M9.04377 34.3334C5.68556 34.8909 2.6061 37.5987 1.43803 41.0233L1.07964 42.0852L1.03982 51.536L1 61H18.1362H35.259V51.9342C35.259 43.3329 35.2458 42.8285 34.9936 41.7666C34.4361 39.4305 32.8433 37.1607 30.8788 35.8466C29.1134 34.6653 27.3613 34.1874 24.8658 34.1874H23.3394L20.7245 36.8687L18.1096 39.5367L15.5213 36.8687L12.9329 34.1874L11.3268 34.2007C10.4375 34.214 9.41543 34.2671 9.04377 34.3334ZM15.1762 38.9261L18.1362 41.9525L21.0829 38.9261L24.0429 35.8997L25.2508 35.913C28.9143 35.9263 31.8743 37.9704 33.1087 41.3817L33.4671 42.3507L33.5069 50.8059L33.5467 59.2744H30.8788H28.2241V55.0269V50.7794H27.3613H26.4985V55.0269V59.2744H18.1362H9.77382V55.0269V50.7794H8.91104H8.04826V55.0269V59.2744H5.39355H2.73884V51.0714C2.73884 41.9657 2.72556 42.1383 3.62816 40.2933C4.29184 38.9261 5.75193 37.466 7.11911 36.8023C8.48628 36.1386 9.34906 35.9263 10.8888 35.9263L12.2162 35.913L15.1762 38.9261Z" fill="white" stroke="white" stroke-width="2"/>
</svg>
