<svg width="75" height="60" viewBox="0 0 75 60" fill="none" xmlns="http://www.w3.org/2000/svg">
<g clip-path="url(#clip0_1080_2108)">
<path d="M13.125 0C10.0195 0 7.5 2.51953 7.5 5.625V11.25H1.875C0.84375 11.25 0 12.0937 0 13.125C0 14.1563 0.84375 15 1.875 15H7.5H31.875C32.9063 15 33.75 15.8437 33.75 16.875C33.75 17.9063 32.9063 18.75 31.875 18.75H7.5H5.625C4.59375 18.75 3.75 19.5937 3.75 20.625C3.75 21.6563 4.59375 22.5 5.625 22.5H7.5H28.125C29.1563 22.5 30 23.3437 30 24.375C30 25.4063 29.1563 26.25 28.125 26.25H7.5H1.875C0.84375 26.25 0 27.0937 0 28.125C0 29.1563 0.84375 30 1.875 30H7.5H24.375C25.4063 30 26.25 30.8437 26.25 31.875C26.25 32.9063 25.4063 33.75 24.375 33.75H7.5V48.75C7.5 54.9609 12.5391 60 18.75 60C24.9609 60 30 54.9609 30 48.75H45C45 54.9609 50.0391 60 56.25 60C62.4609 60 67.5 54.9609 67.5 48.75H71.25C73.3242 48.75 75 47.0742 75 45C75 42.9258 73.3242 41.25 71.25 41.25V33.75V30V27.8086C71.25 25.8164 70.4648 23.9062 69.0586 22.5L60 13.4414C58.5938 12.0352 56.6836 11.25 54.6914 11.25H48.75V5.625C48.75 2.51953 46.2305 0 43.125 0H13.125ZM63.75 27.8086V30H48.75V18.75H54.6914L63.75 27.8086ZM18.75 43.125C20.2418 43.125 21.6726 43.7176 22.7275 44.7725C23.7824 45.8274 24.375 47.2582 24.375 48.75C24.375 50.2418 23.7824 51.6726 22.7275 52.7275C21.6726 53.7824 20.2418 54.375 18.75 54.375C17.2582 54.375 15.8274 53.7824 14.7725 52.7275C13.7176 51.6726 13.125 50.2418 13.125 48.75C13.125 47.2582 13.7176 45.8274 14.7725 44.7725C15.8274 43.7176 17.2582 43.125 18.75 43.125ZM50.625 48.75C50.625 47.2582 51.2176 45.8274 52.2725 44.7725C53.3274 43.7176 54.7582 43.125 56.25 43.125C57.7418 43.125 59.1726 43.7176 60.2275 44.7725C61.2824 45.8274 61.875 47.2582 61.875 48.75C61.875 50.2418 61.2824 51.6726 60.2275 52.7275C59.1726 53.7824 57.7418 54.375 56.25 54.375C54.7582 54.375 53.3274 53.7824 52.2725 52.7275C51.2176 51.6726 50.625 50.2418 50.625 48.75Z" fill="white"/>
</g>
<defs>
<clipPath id="clip0_1080_2108">
<rect width="75" height="60" fill="white"/>
</clipPath>
</defs>
</svg>
