<svg width="116" height="115" viewBox="0 0 116 115" fill="none" xmlns="http://www.w3.org/2000/svg">
<path d="M116 57.5C117.114 86.5472 91.222 117.123 54.0986 114.915C26.1488 113.301 -1.62944 89.0103 0.0852712 54.1876C1.54277 25.2252 26.8347 -1.6987 61.4718 0.0849056C92.2508 1.69864 116.685 27.8582 116 57.5ZM57.9567 112.962C88.8214 112.962 113.77 88.2459 114.028 58.0096C114.285 27.0938 88.9929 2.29318 58.4711 2.03838C27.2634 1.78358 1.79998 27.0088 2.05719 57.9246C2.31439 88.161 27.1777 112.962 57.9567 112.962Z" fill="white"/>
<path d="M112.656 46.7982C111.37 48.6668 109.998 50.5353 108.626 52.4039C108.369 52.7436 107.769 52.9984 107.34 53.2532C105.968 54.0176 104.682 54.8669 104.425 56.5656C104.339 56.9053 104.082 57.33 103.825 57.5848C103.053 58.604 102.282 59.5383 101.424 60.5575C101.253 60.7273 101.081 60.8972 100.824 60.9821C99.1953 61.5767 98.5951 62.6808 98.2522 64.2945C94.9085 80.9415 85.1347 91.9829 68.6735 96.5693C48.5256 102.26 27.8634 91.7281 19.9757 72.4482C19.7185 71.6838 19.2899 71.5988 18.604 71.5988C14.4029 71.6838 10.2019 71.6838 6.00087 71.6838C5.65793 71.6838 5.22926 71.6838 4.71484 71.6838C4.80058 71.2591 4.80058 70.8344 4.97205 70.5796C6.17235 68.4563 6.42955 66.1631 6.34382 63.7849C6.34382 63.1055 5.91514 62.5109 5.8294 61.8315C5.8294 61.3219 6.08661 60.8123 6.34382 60.3027C6.42955 60.1328 6.68676 60.0479 6.94396 59.878C7.88705 58.9437 8.91588 58.604 10.2876 59.2835C10.8021 59.5383 11.4022 59.5383 12.0024 59.7081C12.6882 59.9629 13.3741 60.3027 14.1457 60.5575C14.7459 60.7273 15.4318 60.8972 16.1177 60.9821C16.8035 60.9821 17.2322 60.4725 17.0607 59.7931C16.4606 56.8204 17.3179 53.9327 17.7466 51.0449C18.9469 42.8913 22.5478 35.7569 28.2063 29.7266C34.9794 22.5922 43.3815 18.3455 53.2411 17.1564C58.9854 16.477 64.5582 16.9866 70.0452 18.6852C70.7311 18.94 71.417 19.2798 72.1886 18.7702C72.3601 18.6852 72.6173 18.7702 72.7888 18.8551C73.6461 19.3647 74.4177 19.4496 75.3608 19.025C75.618 18.94 76.2182 19.3647 76.5611 19.6195C77.1613 20.0442 77.6757 20.4688 78.1901 20.9784C78.533 21.3182 78.7902 21.7428 79.1332 22.1675C79.3904 22.5072 79.5619 22.9319 79.9048 23.2716C80.3335 23.6114 80.8479 23.8662 81.3623 24.2909C82.1339 24.8854 82.9055 25.3101 83.9344 25.1402C84.4488 25.0553 85.0489 25.4799 85.6491 25.7347C86.335 26.0745 86.9351 26.4991 87.621 26.8389C88.2211 27.1786 88.8213 27.2635 89.4214 26.669C89.6786 26.4142 90.193 26.2443 90.536 26.3293C91.822 26.5841 93.108 26.8389 94.3941 27.2635C95.4229 27.6882 96.1945 27.3485 96.9661 26.9238C97.4806 26.5841 97.995 26.1594 98.5094 25.9046C99.4525 25.3101 99.9669 25.4799 100.31 26.4991C100.567 27.5183 101.253 28.0279 102.11 28.5375C103.653 29.7266 105.54 32.1897 104.597 34.4829C104.254 35.3322 104.768 36.0117 105.197 36.6911C105.625 37.2857 105.968 37.9652 106.397 38.6446C106.569 38.8994 106.569 39.3241 106.826 39.5789C108.283 41.4474 109.655 43.316 111.112 45.0996C111.455 45.779 112.056 46.2037 112.656 46.7982ZM44.4961 45.0996C44.2389 45.1845 44.0674 45.3544 43.8959 45.3544C39.2662 46.7133 34.6365 47.9873 30.0068 49.3462C29.1494 49.601 28.8065 49.9408 28.8065 50.96C28.8922 56.3108 28.8065 61.5767 28.8065 66.9275C28.8065 67.2672 28.8065 67.607 28.8065 68.1166C26.7488 68.1166 24.8627 68.1166 23.0622 68.1166C22.3763 69.3906 23.6624 70.9194 22.1191 71.8536C29.1494 89.6047 49.5545 100.646 70.0452 94.1062C79.6476 91.0486 86.9351 85.0183 91.9077 76.3551C94.2226 72.3632 95.6801 68.1166 96.4517 63.2753C95.1657 63.9548 94.3083 64.8041 93.2795 65.0589C92.165 65.3137 91.6505 65.9083 91.0504 66.6727C90.6217 67.2672 90.1073 67.522 89.3357 67.522C87.3638 67.4371 85.3919 67.522 83.3342 67.522C82.0482 67.522 80.7621 67.522 79.3904 67.522C83.1627 66.248 86.9351 65.2288 90.7075 64.1247C91.3933 63.9548 91.822 63.7 91.822 62.8507C91.822 52.9135 91.822 42.8913 91.822 32.9541C91.822 32.6143 91.7363 32.2746 91.6505 31.8499C79.7333 35.2473 67.9876 38.6446 56.0704 42.042C56.0704 39.6638 56.9277 37.9652 58.5567 36.4363C59.414 35.6719 60.0142 34.7377 60.7858 33.8034C60.9573 33.6335 61.1287 33.3787 61.3002 33.2089C62.329 32.4445 63.0149 31.5951 62.8435 30.1513C62.7577 29.7266 62.8434 29.217 62.9292 28.7074C63.1864 27.4334 63.958 27.0937 65.244 27.6033C65.7584 27.7731 66.5301 27.8581 67.0445 27.6033C68.3305 27.0937 69.5308 26.4142 70.6454 25.7347C70.9883 25.5649 71.3313 25.2251 71.5885 24.9703C72.1886 24.3758 72.1886 23.8662 71.5885 23.1867C71.1598 22.762 70.6454 22.2524 70.6454 21.8278C70.6454 21.1483 70.2167 20.9784 69.7023 20.8935C62.5005 18.6852 55.213 18.3455 47.9255 20.4688C32.4931 25.0553 23.148 35.2473 19.8043 50.7901C19.5471 51.8942 19.4613 52.9984 19.2899 54.3573C20.4044 53.8477 21.2618 53.4231 22.2049 53.0833C22.8907 52.8285 23.0622 52.4039 22.7193 51.8093C21.6905 50.0257 22.2906 48.7517 24.0053 47.3078C24.6912 46.7982 25.2913 46.2886 25.3771 45.2694C25.3771 44.59 25.8915 44.505 26.4059 44.9297C26.7488 45.1845 27.1775 45.3544 27.5205 45.2694C28.2921 45.0996 29.0637 44.9297 29.6638 45.6941C29.7496 45.864 30.264 45.9489 30.5212 45.779C30.6927 45.6941 30.7784 45.2694 30.8641 45.0146C30.9499 44.6749 30.8641 44.3352 30.8641 44.1653C31.7215 44.1653 32.4074 44.1653 33.0933 44.1653C33.4362 44.1653 33.6934 44.3352 34.0364 44.505C34.465 44.6749 34.808 44.9297 35.2366 45.0996C36.0083 45.4393 36.8656 45.6941 37.6372 46.0338C38.3231 46.3736 38.6661 46.1188 38.9233 45.5242C40.1236 43.0612 42.6956 42.7214 44.4961 45.0996Z" fill="white"/>
<path d="M44.8382 102.854C43.8093 104.213 42.8662 105.657 41.8374 107.016C41.7517 107.016 41.6659 107.016 41.5802 107.016C39.8655 106.507 39.8655 106.507 39.9512 104.808C40.037 103.534 40.037 102.345 40.037 101.071C39.5226 102.685 38.9224 104.298 38.3223 105.912C37.4649 105.657 36.6933 105.317 35.8359 105.063C36.8648 102.26 37.8079 99.457 38.8367 96.4844C39.9512 96.8241 40.8943 97.1638 41.9232 97.5885C42.0946 97.6734 42.1804 98.0981 42.1804 98.3529C42.0946 99.9667 42.0089 101.495 41.9232 103.109C42.0089 103.109 42.0946 103.194 42.1804 103.194C42.6948 102.515 43.2092 101.835 43.6379 101.156C45.3526 98.6926 45.3526 98.6926 48.1818 99.7119C48.3533 99.7968 48.5248 99.8817 48.782 99.9666C48.2676 101.411 47.7532 102.769 47.2387 104.213C46.7243 105.572 46.2099 107.016 45.6955 108.545C44.8382 108.29 44.0665 107.95 43.2092 107.696C43.8093 106.082 44.3237 104.553 44.9239 103.024C44.9239 102.939 44.8382 102.854 44.8382 102.854Z" fill="white"/>
<path d="M32.7496 11.4663C33.6069 10.9567 34.3786 10.5321 35.2359 10.0225C36.7792 12.6554 38.3224 15.2034 39.8656 17.8363C39.094 18.261 38.4939 18.7706 37.7222 19.0254C37.465 19.1103 37.0364 19.0254 36.6934 18.8555C35.3217 18.1761 33.8642 17.4966 32.3209 16.987C33.0925 18.261 33.8642 19.535 34.6358 20.894C33.8642 21.3186 33.0925 21.8282 32.2352 22.3378C30.6919 19.7049 29.1487 17.1569 27.6055 14.5239C28.3771 14.0993 29.063 13.6746 29.7489 13.3349C30.0061 13.2499 30.4347 13.3349 30.6919 13.5047C32.1494 14.1842 33.6069 14.9486 35.1502 15.4582C34.3786 14.0993 33.6069 12.8253 32.7496 11.4663Z" fill="white"/>
<path d="M55.9838 109.904C55.898 106.847 55.8123 104.129 55.7266 101.326C55.7266 101.071 56.241 100.731 56.4982 100.731C57.9557 100.646 59.4132 100.646 60.8707 100.646C61.8995 100.646 63.0141 100.816 63.5285 101.836C64.0429 102.855 63.7 103.874 62.8426 104.723C63.9572 105.403 64.5573 106.337 64.2144 107.611C63.9572 108.715 63.0998 109.395 62.071 109.48C60.0991 109.649 58.1272 109.734 55.9838 109.904ZM59.9276 105.827C59.7561 105.912 59.156 105.912 58.9845 106.167C58.813 106.507 58.8988 107.356 58.9845 107.356C59.5847 107.526 60.2705 107.526 60.9564 107.441C61.2136 107.441 61.5566 106.932 61.5566 106.677C61.5566 106.422 61.2136 106.082 60.9564 105.912C60.6992 105.827 60.3563 105.912 59.9276 105.827ZM58.8988 102.515C58.8988 103.279 58.8988 103.789 58.8988 104.553C59.7561 104.214 60.442 104.044 61.0422 103.704C61.1279 103.704 61.0422 103.025 60.9564 103.025C60.2705 102.855 59.5847 102.685 58.8988 102.515Z" fill="white"/>
<path d="M33.4359 98.7777C34.6362 100.731 32.6643 101.665 32.3213 103.194C31.6354 102.685 30.9496 102.345 30.3494 101.835C30.1779 101.665 30.1779 101.326 30.1779 101.071C30.1779 100.901 30.3494 100.816 30.4351 100.646C31.5497 98.8627 31.464 98.6079 29.4921 97.5037C28.8919 98.3531 28.2918 99.1175 27.6916 100.052C26.92 99.4572 26.1484 98.9476 25.291 98.438C27.0057 95.89 28.7204 93.4269 30.4351 90.8789C32.0641 91.983 33.6074 93.0872 35.1506 94.1913C36.0079 94.8708 36.6938 95.7201 36.2651 96.9092C35.8365 98.0133 35.0649 98.7777 33.4359 98.7777ZM30.6066 95.7201C31.2068 96.0598 31.6354 96.4845 32.2356 96.6544C32.5785 96.7393 33.1787 96.5695 33.3501 96.3996C33.5216 96.1448 33.4359 95.5502 33.1787 95.2954C32.8357 94.8708 32.2356 94.616 31.7212 94.2762C31.2925 94.7858 30.9496 95.2105 30.6066 95.7201Z" fill="white"/>
<path d="M88.2201 100.732C87.9629 100.901 87.7914 100.986 87.6199 101.071C85.8195 102.175 85.8195 102.175 84.6192 100.477C83.9333 99.6274 83.3332 99.7123 81.8757 100.816C82.3901 101.666 82.8188 102.515 83.4189 103.534C82.5615 104.044 81.7899 104.469 80.9326 104.978C80.5896 104.384 80.2467 103.874 79.9037 103.28C78.8749 101.496 77.7604 99.6274 76.7315 97.8438C76.4743 97.4191 76.2171 97.0794 76.903 96.7397C78.3605 95.9753 79.7323 95.1259 81.1898 94.4465C82.2186 93.9369 83.3332 93.5971 84.362 94.5314C85.3051 95.4657 85.5623 96.5698 84.8764 97.8438C87.0198 97.5041 87.0198 99.7123 88.2201 100.732ZM79.818 97.4191C80.1609 98.0137 80.4182 98.5233 80.7611 99.0329C81.3612 98.6931 81.8757 98.5233 82.2186 98.0986C82.4758 97.8438 82.733 97.1643 82.5615 96.9095C82.3901 96.6547 81.7899 96.4849 81.3612 96.5698C80.9326 96.6547 80.5039 97.0794 79.818 97.4191Z" fill="white"/>
<path d="M77.3322 14.4383C75.6175 14.7781 75.9605 16.3918 75.0174 17.3261C74.2458 16.9863 73.3884 16.5617 72.4453 16.137C73.7313 13.3342 74.9316 10.7012 76.2177 7.89844C76.9893 8.23817 77.7609 8.49297 78.4468 8.91764C78.6183 9.00257 78.704 9.51217 78.704 9.68204C78.5325 10.2766 78.1896 10.8711 77.8466 11.8054C78.8755 11.3807 79.6471 11.1259 80.4187 10.7012C81.1903 10.2766 81.8762 10.2766 82.6478 10.7012C83.248 11.041 83.8481 11.2958 84.6197 11.6355C83.248 12.1451 82.1334 12.6547 81.0189 12.9944C80.333 13.2492 80.2472 13.589 80.333 14.1835C80.6759 16.0521 80.9331 17.9206 81.1903 20.0439C79.9043 19.5343 78.9612 19.1097 78.0181 18.685C77.8466 18.6001 77.7609 18.2603 77.7609 18.0055C77.5894 16.8165 77.5037 15.7123 77.3322 14.4383Z" fill="white"/>
<path d="M24.1767 29.3023C23.4908 30.3215 23.0622 31.1708 22.462 31.8503C22.2905 32.1051 21.7761 32.19 21.3474 32.19C20.2329 32.19 19.2041 32.19 18.0038 32.19C18.0038 33.8038 19.8042 33.8038 20.4901 34.823C20.0614 35.5024 19.547 36.2668 18.9469 37.2011C16.3748 35.5024 13.8885 33.8887 11.3164 32.275C11.8308 31.4256 12.3452 30.6612 12.9454 29.8119C13.717 30.3215 14.4886 30.7462 15.2602 31.1708C15.346 31.1708 15.4317 31.1708 15.5174 31.0859C14.6601 28.8776 13.9742 26.6693 16.4605 24.8857C16.7177 25.9899 17.0607 27.1789 17.2321 28.2831C17.3179 28.9626 17.6608 29.2174 18.3467 29.2174C20.1472 29.3023 22.0333 29.3023 24.1767 29.3023Z" fill="white"/>
<path d="M74.4175 97.8438C74.9319 99.6274 75.4463 101.326 75.875 102.94C76.5609 105.573 75.7035 106.932 73.1315 107.866C69.8735 108.97 68.1588 108.036 67.2157 104.723C66.787 103.195 66.3584 101.751 65.9297 100.137C66.8728 99.8822 67.8159 99.6274 68.759 99.2876C69.2734 100.986 69.6163 102.685 70.2165 104.299C70.3879 104.893 70.8166 105.573 71.331 105.828C72.3598 106.252 73.3029 105.233 73.0457 104.044C72.7028 102.43 72.1884 100.901 71.7597 99.3726C71.5882 98.778 71.5882 98.4383 72.3598 98.2684C73.0457 98.2684 73.6459 98.0986 74.4175 97.8438Z" fill="white"/>
<path d="M50.8398 5.26549C51.8687 5.26549 52.8118 5.26549 53.8406 5.26549C53.9263 6.96416 53.9263 8.66283 54.0978 10.3615C54.1835 10.956 54.4407 11.7204 54.9551 11.9752C55.984 12.5698 57.0128 11.8054 57.0128 10.6163C57.0128 9.17243 56.8413 7.72856 56.8413 6.28469C56.8413 5.86002 56.8413 5.52029 56.8413 5.01069C57.7844 4.92575 58.6418 4.92575 59.8421 4.84082C59.8421 7.21896 59.8421 9.5971 59.8421 11.8903C59.8421 12.0602 59.7563 12.23 59.6706 12.3999C59.0704 13.8438 56.8413 14.6931 54.6122 14.4383C52.5546 14.1835 51.5257 13.0794 51.3543 11.2958C51.0971 9.3423 51.0113 7.38883 50.8398 5.26549Z" fill="white"/>
<path d="M99.71 71.1739C100.053 70.2397 100.396 69.3903 100.739 68.4561C102.711 69.2205 104.597 69.8999 106.483 70.6643C107.941 71.3438 108.626 72.5329 108.369 74.1466C108.284 74.911 108.026 75.6754 107.769 76.3549C106.826 78.5631 105.197 79.3275 102.882 78.5631C101.167 77.9686 99.4528 77.2891 97.6523 76.6097C97.9953 75.6754 98.3382 74.8261 98.6812 73.8918C100.482 74.5713 102.196 75.1658 103.997 75.8453C105.026 76.185 105.711 75.9302 105.969 74.9959C106.226 74.2315 105.969 73.637 105.111 73.2973C103.654 72.7027 102.196 72.1931 100.739 71.5986C100.396 71.4287 100.139 71.3438 99.71 71.1739Z" fill="white"/>
<path d="M18.7754 21.9124C20.6616 20.1288 22.3763 18.5151 24.1767 16.8164C24.6911 17.326 25.1198 17.7507 25.4628 18.1753C24.4339 19.1945 23.4051 20.2137 22.3763 21.3179C22.7192 21.6576 22.9764 21.9124 23.3194 22.3371C24.2625 21.4878 25.1198 20.6384 26.0629 19.7891C26.5773 20.2987 27.0917 20.7233 27.6061 21.148C26.663 22.0823 25.72 22.9316 24.8626 23.781C25.2055 24.1207 25.4628 24.4604 25.8914 24.8851C27.006 23.8659 28.1206 22.8467 29.1494 21.8275C29.6638 22.2522 30.0925 22.6768 30.6926 23.1864C28.8922 24.8851 27.0917 26.5838 25.1198 28.4523C23.0622 26.329 21.0045 24.2056 18.7754 21.9124Z" fill="white"/>
<path d="M97.052 93.1717C95.1658 94.8704 93.3654 96.5691 91.3934 98.3527C89.3358 96.1444 87.2782 93.9361 85.1348 91.6429C86.9352 89.9442 88.7356 88.3305 90.6218 86.6318C91.1362 87.1414 91.5649 87.5661 92.0793 88.0757C90.9648 89.0949 89.8502 90.1141 88.7356 91.1333C89.0786 91.473 89.2501 91.7278 89.6787 92.1525C90.6218 91.3032 91.4792 90.5388 92.508 89.6045C93.0224 90.0292 93.4511 90.5388 93.9655 91.0484C93.0224 91.9826 92.0793 92.7471 91.1362 93.6813C91.4792 94.0211 91.7364 94.3608 92.0793 94.7855C93.1939 93.7663 94.3085 92.7471 95.5087 91.6429C96.0232 92.2375 96.5376 92.6621 97.052 93.1717Z" fill="white"/>
<path d="M71.3312 12.5704C70.3881 15.0335 68.3305 15.9677 65.7584 15.2033C63.1006 14.4389 61.9861 12.3156 62.5862 9.42784C63.1006 7.0497 65.1583 5.5209 67.5589 5.7757C70.3024 6.11543 71.8456 7.72917 71.7599 10.2772C70.9883 10.1073 70.2167 10.0224 69.5308 9.85251C69.3593 9.76757 69.1878 9.42784 69.0164 9.17304C68.5019 8.74837 68.0733 8.15384 67.5589 8.0689C67.1302 7.98397 66.2728 8.49357 66.1014 8.91824C65.7584 9.85251 65.5012 10.9566 65.5012 11.9758C65.5012 13.1649 67.3017 13.8444 67.9875 12.995C68.8449 11.8909 69.7022 12.2306 70.7311 12.4005C70.8168 12.4005 71.074 12.4854 71.3312 12.5704Z" fill="white"/>
<path d="M99.2814 90.9638C97.2237 88.161 95.3376 85.613 93.5371 83.065C94.9946 80.517 94.9946 80.517 97.7381 81.1965C99.9673 81.791 102.282 82.3855 104.683 82.9801C104.168 83.7445 103.74 84.424 103.311 85.0185C103.225 85.1884 102.882 85.3582 102.711 85.2733C101.853 84.7637 101.596 85.4432 101.168 85.9528C100.91 86.2925 100.653 86.7172 100.396 87.0569C100.31 87.2268 100.139 87.4816 100.224 87.5665C101.511 89.1802 99.5386 89.6898 99.2814 90.9638ZM96.8808 83.4897C96.7951 83.5746 96.7951 83.6596 96.7093 83.6596C97.3095 84.424 97.9953 85.1884 98.6812 86.0377C99.1099 85.4432 99.3671 85.0185 99.7958 84.424C98.767 84.0842 97.8239 83.7445 96.8808 83.4897Z" fill="white"/>
<path d="M18.0034 91.2186C17.4032 90.5391 16.8031 89.9446 16.1172 89.1801C19.0322 87.9911 21.7757 86.802 24.605 85.6979C24.8622 85.6129 25.2909 85.7828 25.5481 86.0376C26.0625 86.5472 26.5769 87.1417 27.1771 87.7363C25.7196 90.5391 24.1763 93.3419 22.6331 96.2296C21.9472 95.4652 21.2613 94.7858 20.6612 94.1063C20.8326 93.6816 21.0041 93.4268 21.1756 93.0871C19.8038 90.9638 19.3751 90.709 18.0034 91.2186ZM23.9191 88.6705C23.8334 88.5856 23.7476 88.5856 23.7476 88.5007C22.8903 88.9253 22.0329 89.35 21.0041 89.8596C21.5185 90.3692 21.8615 90.7939 22.3759 91.3035C22.8903 90.3692 23.4047 89.5199 23.9191 88.6705Z" fill="white"/>
<path d="M12.688 83.7448C12.1736 82.8954 11.7449 82.131 11.2305 81.2817C13.8883 79.7529 16.4603 78.2241 19.1181 76.6104C20.3184 78.6488 21.5187 80.6022 22.719 82.7256C22.1189 83.0653 21.5187 83.405 20.9186 83.7448C20.2327 82.5557 19.5468 81.4516 18.7752 80.2625C18.2608 80.5173 17.8321 80.857 17.3177 81.1118C17.8321 82.0461 18.3465 82.9804 18.9467 83.9146C18.3465 84.2544 17.8321 84.5941 17.2319 84.9338C16.6318 83.9996 16.1174 83.1502 15.5172 82.216C14.5741 82.7256 13.7168 83.2352 12.688 83.7448Z" fill="white"/>
<path d="M89.1641 18.6008C90.1072 18.1761 90.8788 17.8364 91.6504 17.4967C92.1648 17.2419 92.5935 17.2419 93.0222 17.6665C93.5366 18.1761 94.2224 18.6008 94.9083 19.1953C93.708 19.62 92.6792 20.1296 91.6504 20.4694C89.507 21.0639 87.7066 22.168 86.6777 24.2914C85.8204 23.6119 85.0488 23.0174 84.1914 22.3379C87.3636 20.0447 86.5063 16.4775 87.3636 13.25C88.1352 13.9295 88.9069 14.4391 89.5927 15.0336C89.7642 15.1185 89.7642 15.5432 89.6785 15.798C89.5927 16.6473 89.3355 17.4967 89.1641 18.6008Z" fill="white"/>
<path d="M47.4972 8.0685C46.7255 8.3233 45.8682 8.57811 45.0108 8.91784C45.6967 11.1261 46.2969 13.1645 46.897 15.2879C46.0397 15.5427 45.268 15.8824 44.4964 16.0523C44.325 16.0523 43.982 15.7125 43.8963 15.5427C43.3819 14.0139 42.9532 12.485 42.4388 10.8713C42.353 10.5316 42.1816 10.1918 42.0958 9.76717C41.2385 10.022 40.4669 10.1918 39.5238 10.4466C39.3523 9.76717 39.0951 9.00277 38.8379 8.23837C40.7241 7.64384 42.6102 7.13424 44.4107 6.5397C44.5822 6.45477 44.8394 6.45477 45.0108 6.36983C47.1542 5.86023 46.8113 5.35063 47.4972 8.0685Z" fill="white"/>
<path d="M90.021 33.7188C90.021 43.4012 90.021 52.9137 90.021 62.5961C70.1304 68.0319 50.3256 73.4676 30.1777 78.9883C30.1777 77.3746 30.1777 75.9307 30.1777 74.4019C30.1777 67.0976 30.1777 59.7933 30.2635 52.4041C30.2635 50.7904 30.2635 50.7904 31.721 50.3657C40.3802 47.9026 49.1253 45.3546 57.7845 42.8916C66.0151 40.5134 74.2457 38.1353 82.4763 35.7572C85.0484 35.1626 87.449 34.4832 90.021 33.7188ZM89.078 35.0777C88.6493 35.1626 88.3921 35.1626 88.1349 35.2476C83.6766 36.5216 79.3041 37.7956 74.8459 39.0696C60.6995 43.1464 46.4675 47.2232 32.3211 51.3C31.4638 51.5548 31.1208 51.8945 31.1208 52.8288C31.1208 60.7276 31.1208 68.6264 31.1208 76.5252C31.1208 76.865 31.1208 77.2897 31.1208 77.7143C31.8924 77.5445 32.4926 77.3746 33.0927 77.2047C43.8097 74.232 54.5266 71.2594 65.2435 68.3716C72.7025 66.3332 80.1615 64.2948 87.7062 62.2564C88.735 62.0016 88.9922 61.577 88.9922 60.5577C88.9065 52.4891 88.9922 44.5053 88.9922 36.4366C89.078 35.927 89.078 35.5873 89.078 35.0777Z" fill="white"/>
<path d="M53.5844 42.5517C51.3553 43.2311 49.1261 43.8257 46.897 44.4202C46.7256 44.5051 46.5541 44.3353 46.2969 44.2503C46.4683 44.0805 46.5541 43.9955 46.6398 43.8257C46.8113 43.5709 47.1542 43.3161 47.24 42.9763C47.4114 42.2119 47.4972 41.4475 47.6686 40.7681C47.7544 40.5982 47.9258 40.3434 48.0973 40.2585C48.6975 39.9187 49.2976 39.6639 50.0692 39.2393C50.9266 40.3434 51.0123 42.7215 53.5844 42.2119C53.6701 42.3818 53.6701 42.4667 53.5844 42.5517Z" fill="white"/>
<path d="M40.6377 61.1522C42.5239 58.7741 44.4101 56.311 46.4678 53.763C45.7819 53.8479 45.3532 53.9329 44.753 54.1027C44.753 53.1685 44.753 52.4041 44.753 51.5547C44.753 51.2999 45.0102 50.9602 45.1817 50.8753C47.668 50.1109 50.0686 49.4314 52.6407 48.667C52.6407 49.6013 52.7264 50.4506 52.6407 51.2999C52.6407 51.5547 52.212 51.8095 51.9548 51.9794C51.4404 52.3191 50.8403 52.5739 50.4116 53.0835C48.4397 55.3767 46.5535 57.7549 44.6673 60.133C44.4958 60.3878 44.3244 60.6426 44.0672 60.9824C46.4678 62.5961 48.6969 64.2948 51.0975 65.7386C51.5261 65.9934 52.2978 65.6537 53.0694 65.6537C53.0694 66.503 53.0694 67.3524 53.0694 68.1168C53.0694 68.2866 52.8122 68.6264 52.6407 68.7113C50.0686 69.4757 47.4966 70.2401 44.8388 71.0045C44.8388 69.9004 44.8388 68.9661 44.8388 67.9469C45.3532 67.777 45.8676 67.6072 46.6392 67.2674C44.4958 65.7386 42.5239 64.3797 40.2948 62.8509C40.2948 65.0592 40.2948 67.0126 40.2948 69.051C40.9807 68.8812 41.5808 68.7962 42.2667 68.6264C42.2667 69.5606 42.2667 70.41 42.2667 71.3442C42.2667 71.5141 42.0095 71.7689 41.838 71.8538C39.4374 72.6182 37.0369 73.2977 34.4648 73.9772C34.4648 73.0429 34.3791 72.1936 34.5505 71.3442C34.6363 71.0045 35.1507 70.6648 35.4936 70.5798C36.4367 70.41 36.6082 69.9004 36.6082 69.051C36.5224 65.229 36.6082 61.407 36.6082 57.585C36.6082 57.2453 36.6082 56.9905 36.6082 56.5658C35.9223 56.7357 35.3221 56.8206 34.5505 56.9905C34.5505 56.0562 34.5505 55.2069 34.5505 54.3575C34.5505 54.1877 34.722 53.8479 34.8935 53.8479C37.2941 53.1685 39.6947 52.4041 42.3525 51.7246C42.3525 52.6589 42.3525 53.5082 42.3525 54.2726C42.3525 55.1219 41.6666 55.037 41.2379 55.1219C40.4663 55.2918 40.2948 55.6315 40.2948 56.3959C40.3805 57.9247 40.2948 59.4536 40.2948 61.0673C40.4663 61.0673 40.552 61.1522 40.6377 61.1522Z" fill="white"/>
<path d="M70.3871 63.5306C70.3871 63.1059 70.3013 62.6812 70.3013 62.2566C70.1299 60.6428 70.2156 60.6428 71.7588 60.0483C72.016 59.9634 72.4447 59.5387 72.4447 59.2839C72.4447 55.0372 72.4447 50.8755 72.4447 46.6288C72.4447 46.4589 72.359 46.374 72.359 46.1192C71.7588 46.2891 71.0729 46.374 70.3013 46.6288C70.3013 45.6945 70.3013 44.7603 70.3013 43.9109C70.3013 43.7411 70.5585 43.4863 70.73 43.4013C74.0737 42.4671 77.3316 41.4479 80.6753 40.6835C83.2474 40.0889 84.7906 41.6177 84.7906 44.2507C84.7906 46.1192 84.1047 47.648 82.733 48.8371C82.6472 48.922 82.5615 49.0919 82.4757 49.2617C84.1047 49.6864 85.2193 50.6207 85.5622 52.3194C86.1624 55.8016 84.019 59.3688 80.4181 60.5579C77.3316 61.5771 74.1594 62.4264 70.9872 63.3607C70.8157 63.5306 70.6443 63.5306 70.3871 63.5306ZM76.0456 58.7743C77.3316 58.3496 78.5319 58.0099 79.6465 57.5852C81.104 56.9907 81.7899 55.8016 81.8756 54.3578C81.9613 52.829 80.9325 51.8947 79.3893 52.2344C78.4462 52.4043 77.5031 52.744 76.56 52.9988C76.3028 53.0838 76.0456 53.4235 76.0456 53.6783C76.0456 55.292 76.0456 56.9058 76.0456 58.7743ZM76.0456 50.0262C76.9887 49.7714 77.6746 49.6015 78.4462 49.3467C78.8749 49.2617 79.2178 49.0919 79.5608 48.922C80.5896 48.3275 81.2755 47.4781 81.3612 46.2891C81.5327 45.0151 80.761 44.2507 79.475 44.4205C78.4462 44.5904 77.4174 44.8452 76.3885 45.1849C76.2171 45.2699 75.9599 45.5247 75.9599 45.7795C76.0456 47.0535 76.0456 48.4124 76.0456 50.0262Z" fill="white"/>
<path d="M65.4159 48.4117C63.7869 48.8364 62.2437 49.261 60.7862 49.7707C60.6147 49.8556 60.3575 50.1953 60.3575 50.3652C60.3575 51.894 60.3575 53.4228 60.3575 55.1215C61.3006 54.8667 62.0722 54.6119 62.9296 54.3571C63.101 54.2721 63.1868 54.1872 63.2725 54.0173C63.9584 52.4885 63.9584 52.4885 66.016 52.3187C66.016 54.0173 66.016 55.8009 66.016 57.4996C66.016 57.7544 65.6731 58.0092 65.4159 58.0941C64.8157 58.264 64.1299 58.3489 63.444 58.5188C63.3582 58.0941 63.2725 57.6695 63.1868 57.1599C62.4151 57.4147 61.6435 57.5845 60.8719 57.8393C60.6147 57.9243 60.3575 58.264 60.3575 58.4339C60.2718 60.0476 60.3575 61.5764 60.3575 63.2751C61.1291 63.1052 61.7293 62.9353 62.5009 62.7655C62.5009 63.6998 62.5009 64.5491 62.5009 65.3984C62.5009 65.5683 62.2437 65.8231 62.0722 65.908C59.6716 66.6724 57.1853 67.3519 54.6132 68.1163C54.6132 67.0971 54.5275 66.2478 54.699 65.3984C54.699 65.1436 55.2991 64.8039 55.6421 64.719C56.4994 64.5491 56.7566 64.1244 56.7566 63.2751C56.6709 59.4531 56.7566 55.5461 56.7566 51.7241C56.7566 51.3844 56.7566 51.0447 56.6709 50.7049C55.985 50.8748 55.3849 51.0447 54.6132 51.2145C54.6132 50.2803 54.6132 49.4309 54.6132 48.6665C54.6132 48.4117 54.8704 48.072 55.1276 48.072C59.6716 46.713 64.3013 45.439 68.931 44.165C68.931 44.165 69.0168 44.165 69.1882 44.25C69.1882 46.0336 69.1882 47.8172 69.1882 49.6857C69.1882 49.8556 69.0168 50.1104 68.8453 50.1953C67.8165 50.5351 66.7877 50.7899 65.6731 51.1296C65.5016 50.1104 65.4159 49.346 65.4159 48.4117Z" fill="white"/>
</svg>
