<svg width="70" height="50" viewBox="0 0 70 50" fill="none" xmlns="http://www.w3.org/2000/svg">
<path d="M0 18.75C0 8.39062 8.39062 0 18.75 0H20C22.7656 0 25 2.23437 25 5C25 7.76562 22.7656 10 20 10H18.75C13.9219 10 10 13.9219 10 18.75V20H20C25.5156 20 30 24.4844 30 30V40C30 45.5156 25.5156 50 20 50H10C4.48438 50 0 45.5156 0 40V35V30V18.75ZM40 18.75C40 8.39062 48.3906 0 58.75 0H60C62.7656 0 65 2.23437 65 5C65 7.76562 62.7656 10 60 10H58.75C53.9219 10 50 13.9219 50 18.75V20H60C65.5156 20 70 24.4844 70 30V40C70 45.5156 65.5156 50 60 50H50C44.4844 50 40 45.5156 40 40V35V30V18.75Z" fill="white"/>
</svg>
