<svg width="433" height="203" viewBox="0 0 433 203" fill="none" xmlns="http://www.w3.org/2000/svg">
<g clip-path="url(#clip0_631_3218)">
<path d="M411.986 174.392L31.6447 199.467C21.6357 200.127 13.0547 192.613 12.3953 182.612L3.50896 47.8184C2.84965 37.8176 10.37 29.2427 20.379 28.5828L400.721 3.50857C410.73 2.84872 419.311 10.3621 419.97 20.363L428.856 155.157C429.516 165.158 421.995 173.733 411.986 174.392Z" fill="#FAC605" stroke="black" stroke-width="2" stroke-miterlimit="10"/>
<path d="M79.4305 82.3368C79.1555 81.4815 78.6774 80.858 78.4168 80.2201C77.9386 79.5966 77.4748 79.1905 76.7934 78.7987C76.1119 78.4069 75.4448 78.2325 74.7634 77.8407C74.0963 77.6663 73.2116 77.5063 72.1237 77.578C70.383 77.6928 68.8886 78.228 67.6404 79.1837C66.3922 80.1394 65.3903 81.5156 64.8378 83.0805C64.2854 84.6454 63.9792 86.6308 64.1369 89.0223C64.2945 91.4138 64.8587 93.3418 65.6118 94.8206C66.3792 96.5169 67.5388 97.5322 68.9017 98.3158C70.2645 99.0993 71.8163 99.4337 73.557 99.319C75.0801 99.2186 76.5889 98.9007 77.6338 98.1768C78.6787 97.4528 79.5061 96.7432 80.0872 95.6132C80.6683 94.4831 80.8142 93.3817 80.7139 91.8598L82.2513 91.9768L73.5478 92.5506L73.2039 87.3328L87.1294 86.4147L87.4017 90.5455C87.6024 93.5892 87.1073 96.0238 85.9451 98.2839C84.7829 100.544 83.1425 102.181 81.0383 103.411C78.9341 104.642 76.5837 105.452 73.7551 105.638C70.7088 105.839 67.8372 105.373 65.3434 104.009C62.864 102.863 60.9943 101.021 59.5168 98.4978C58.0393 95.9749 57.1858 92.9742 56.9565 89.4957C56.7845 86.8867 57.0477 84.2491 57.5715 82.2494C58.2985 80.018 59.2718 78.207 60.4769 76.599C61.8997 74.9767 63.3512 73.7893 65.2521 72.7905C67.1531 71.7918 69.097 71.4453 71.2729 71.3018C73.2312 71.1727 74.9862 71.2754 76.5523 71.8272C78.336 72.3647 79.6845 72.9309 81.0617 73.9318C82.4389 74.9328 83.5985 75.9481 84.3372 77.2096C85.2936 78.4566 85.8291 79.9498 86.1613 81.6747L79.4161 82.1194L79.4305 82.3368Z" fill="black"/>
<path d="M100.069 103.686L97.876 70.4219L120.505 68.93L120.892 74.8001L105.443 75.8186L105.974 83.8627L120.334 82.916L120.721 88.786L106.361 89.7328L106.891 97.7769L122.34 96.7585L122.727 102.629L100.098 104.12L100.069 103.686Z" fill="black"/>
<path d="M131.756 73.8662L131.369 67.9961L158.785 66.1887L159.172 72.0587L148.945 72.7329L150.766 100.344L143.803 100.803L141.983 73.192L131.756 73.8662Z" fill="black"/>
<path d="M194.718 97.4438L187.103 97.9459L196.428 63.7046L205.566 63.1021L219.306 95.8229L211.69 96.325L201.73 71.2157L201.513 71.2301L194.718 97.4438ZM193.423 84.428L211.265 83.2517L211.624 88.687L193.781 89.8632L193.423 84.428Z" fill="black"/>
<path d="M246.939 94.0019L244.746 60.7383L266.94 59.2751L267.327 65.1452L252.313 66.135L252.844 74.1791L266.552 73.2754L266.939 79.1455L253.231 80.0492L254.134 93.746L246.953 94.2193L246.939 94.0019Z" fill="black"/>
<path d="M280.23 91.8066L278.037 58.543L291.31 57.668C293.921 57.4958 296.125 57.7872 297.923 58.5421C299.722 59.297 301.331 60.501 302.301 61.9655C303.286 63.6474 303.836 65.358 303.994 67.7495C304.137 69.9236 303.831 71.9089 302.843 73.5025C302.073 75.0818 300.636 76.4866 298.953 77.471C297.27 78.4554 295.122 79.0337 292.511 79.2058L283.59 79.794L283.218 74.1413L290.833 73.6393C292.139 73.5532 293.212 73.2641 294.054 72.7719C294.896 72.2797 295.52 71.8018 295.898 70.9035C296.29 70.2226 296.436 69.1212 296.364 68.0341C296.292 66.9471 296.017 66.0918 295.525 65.2508C295.047 64.6273 294.351 64.0181 293.452 63.6407C292.553 63.2632 291.451 63.1175 289.928 63.2179L285.141 63.5335L286.961 91.1445L280.216 91.5892L280.23 91.8066ZM297.286 75.3974L306.558 90.0709L298.725 90.5873L289.671 75.8994L297.286 75.3974Z" fill="black"/>
<path d="M316.785 89.3965L314.592 56.1328L337.221 54.641L337.608 60.511L322.159 61.5295L322.689 69.5737L337.05 68.6269L337.437 74.497L323.076 75.4437L323.607 83.4879L339.055 82.4694L339.442 88.3394L316.813 89.8313L316.785 89.3965Z" fill="black"/>
<path d="M351.599 87.1035L349.406 53.8398L372.035 52.348L372.422 58.2181L356.974 59.2365L357.504 67.2807L371.865 66.3339L372.252 72.204L357.891 73.1507L358.421 81.1949L373.87 80.1764L374.257 86.0465L351.628 87.5383L351.599 87.1035Z" fill="black"/>
<path d="M63.2888 115.937L65.496 149.418L58.3157 149.891L56.1084 116.41L63.2888 115.937Z" fill="black"/>
<path d="M101.584 113.41L103.791 146.891L97.6984 147.293L81.7298 127.165L81.5122 127.179L82.9025 148.268L75.9397 148.727L73.7324 115.246L80.0424 114.83L95.7934 134.972L96.011 134.958L94.6207 113.869L101.584 113.41Z" fill="black"/>
<path d="M130.936 121.084C130.632 119.793 130.125 118.735 128.994 118.155C127.863 117.574 126.529 117.225 124.789 117.34C123.701 117.412 122.627 117.701 121.989 117.961C121.133 118.236 120.74 118.917 120.334 119.381C119.942 120.061 119.767 120.728 119.81 121.38C119.853 122.033 119.882 122.467 120.346 122.873C120.809 123.28 121.056 123.7 121.505 123.889C121.955 124.078 122.636 124.469 123.303 124.644C123.97 124.818 124.637 124.992 125.305 125.167L128.394 125.618C129.946 125.953 131.28 126.301 132.396 126.664C133.745 127.231 134.658 127.825 135.789 128.406C136.717 129.218 137.427 130.045 138.151 131.089C138.876 132.133 138.962 133.437 139.048 134.742C139.177 136.698 138.871 138.684 137.869 140.06C136.867 141.436 135.43 142.841 133.746 143.825C131.845 144.824 129.48 145.417 126.869 145.589C124.258 145.761 121.836 145.484 119.821 144.744C117.805 144.003 116.21 143.016 115.008 141.349C113.805 139.681 113.023 137.768 112.866 135.376L119.611 134.931C119.682 136.018 120.175 136.859 120.668 137.7C121.16 138.541 122.059 138.919 123.176 139.282C124.075 139.659 125.177 139.805 126.482 139.719C127.57 139.647 128.644 139.358 129.5 139.083C130.342 138.591 130.966 138.113 131.358 137.432C131.75 136.751 131.925 136.085 131.867 135.215C131.824 134.563 131.564 133.925 131.086 133.302C130.622 132.895 129.94 132.504 129.041 132.126C128.142 131.749 127.04 131.603 125.923 131.24L122.167 130.614C119.296 130.148 117.048 129.205 115.207 127.798C113.366 126.391 112.584 124.477 112.427 122.085C112.298 120.129 112.618 118.361 113.606 116.767C114.593 115.174 116.045 113.986 117.946 112.987C119.847 111.989 121.994 111.41 124.387 111.253C126.781 111.095 128.985 111.386 131.001 112.127C133.016 112.867 134.394 113.868 135.582 115.318C136.77 116.769 137.32 118.479 137.449 120.436L130.921 120.866L130.936 121.084Z" fill="black"/>
<path d="M149.035 143.689L146.842 110.426L160.115 109.551C162.726 109.379 164.93 109.67 166.743 110.642C168.541 111.397 169.946 112.833 171.135 114.283C172.12 115.965 172.684 117.893 172.827 120.067C172.971 122.241 172.664 124.227 171.691 126.038C170.935 127.834 169.498 129.239 167.815 130.223C166.132 131.208 163.999 132.004 161.388 132.176L152.902 132.735L152.529 127.082L159.709 126.609C161.015 126.523 162.089 126.234 162.93 125.742C163.772 125.25 164.382 124.554 164.76 123.656C165.137 122.758 165.298 121.874 165.226 120.787C165.154 119.7 164.865 118.627 164.387 118.003C163.894 117.162 163.199 116.553 162.3 116.176C161.401 115.798 160.298 115.653 158.775 115.753L153.988 116.069L155.809 143.68L149.063 144.124L149.035 143.689Z" fill="black"/>
<path d="M183.414 141.424L181.221 108.16L203.85 106.668L204.237 112.538L188.788 113.557L189.318 121.601L203.679 120.654L204.066 126.524L189.705 127.471L190.221 135.298L205.67 134.279L206.057 140.149L183.428 141.641L183.414 141.424Z" fill="black"/>
<path d="M244.224 115.798L237.044 116.272C236.769 115.416 236.494 114.561 236.016 113.937C235.538 113.314 235.06 112.69 234.364 112.081C233.683 111.689 233.001 111.298 232.116 111.138C231.232 110.978 230.347 110.817 229.477 110.875C227.736 110.99 226.242 111.525 224.993 112.481C223.745 113.436 222.961 114.798 222.191 116.377C221.638 117.942 221.347 120.145 221.49 122.319C221.648 124.711 222.212 126.639 222.979 128.335C223.747 130.031 224.906 131.046 226.269 131.83C227.632 132.614 229.184 132.948 230.707 132.848C231.577 132.79 232.433 132.515 233.289 132.241C234.145 131.966 234.769 131.488 235.393 131.01C236.017 130.532 236.41 129.851 236.802 129.17C237.194 128.489 237.354 127.606 237.514 126.722L244.695 126.248C244.578 127.784 244.243 129.335 243.676 130.682C243.124 132.247 242.107 133.406 240.873 134.579C239.64 135.752 238.391 136.708 236.694 137.475C234.996 138.242 233.052 138.589 230.876 138.732C227.83 138.933 225.176 138.453 222.696 137.306C220.217 136.159 218.347 134.317 216.652 131.809C215.175 129.286 214.321 126.285 214.078 122.589C213.834 118.893 214.286 115.807 215.42 113.112C216.553 110.417 218.382 108.331 220.69 106.869C222.997 105.406 225.565 104.582 228.394 104.396C230.352 104.266 232.107 104.369 233.891 104.907C235.675 105.444 237.023 106.01 238.4 107.011C239.778 108.012 240.951 109.245 241.705 110.724C243.328 112.145 243.878 113.856 244.224 115.798Z" fill="black"/>
<path d="M252.324 109.37L251.937 103.5L279.352 101.693L279.739 107.563L269.513 108.237L271.333 135.848L264.37 136.307L262.55 108.696L252.324 109.37Z" fill="black"/>
<path d="M295.454 100.631L297.661 134.112L290.698 134.571L288.491 101.09L295.454 100.631Z" fill="black"/>
<path d="M337.681 114.661C337.924 118.356 337.472 121.443 336.339 124.138C335.205 126.833 333.376 128.919 331.068 130.381C328.761 131.843 326.193 132.668 323.147 132.869C320.1 133.07 317.446 132.589 314.967 131.443C312.488 130.296 310.618 128.454 308.923 125.946C307.445 123.423 306.592 120.422 306.348 116.726C306.104 113.03 306.557 109.943 307.69 107.248C308.824 104.553 310.653 102.468 312.96 101.005C315.268 99.5432 317.836 98.7188 320.882 98.518C323.928 98.3172 326.582 98.7972 329.062 99.9439C331.541 101.091 333.411 102.933 335.106 105.441C336.801 107.95 337.437 110.965 337.681 114.661ZM330.718 115.12C330.56 112.728 329.996 110.8 329.243 109.321C328.49 107.842 327.316 106.61 325.953 105.826C324.59 105.042 323.038 104.708 321.298 104.823C319.557 104.938 318.063 105.473 316.814 106.429C315.566 107.384 314.782 108.746 314.012 110.325C313.459 111.89 313.168 114.093 313.311 116.267C313.454 118.441 314.033 120.587 314.786 122.065C315.539 123.544 316.713 124.777 318.076 125.561C319.439 126.344 320.99 126.679 322.731 126.564C324.472 126.449 325.966 125.914 327.214 124.958C328.463 124.002 329.247 122.641 330.017 121.061C330.569 119.496 330.861 117.294 330.718 115.12Z" fill="black"/>
<path d="M374.437 95.4217L376.644 128.903L370.552 129.304L354.583 109.177L354.366 109.191L355.756 130.28L348.793 130.739L346.586 97.2578L352.896 96.8418L368.647 116.984L368.865 116.969L367.474 95.8807L374.437 95.4217Z" fill="black"/>
<path d="M409.057 27.1952C409.435 26.2969 409.799 25.1811 409.713 23.8767C409.455 19.9633 406.208 17.1204 402.291 17.3786C401.203 17.4503 400.13 17.7394 399.085 18.4634L409.057 27.1952Z" fill="black"/>
<path d="M396.428 21.2603C395.847 22.3904 395.483 23.5061 395.569 24.8106C395.827 28.724 399.074 31.5669 402.991 31.3087C404.296 31.2226 405.355 30.7161 406.4 29.9921L396.428 21.2603Z" fill="black"/>
<path d="M417.757 159.164C418.135 158.266 418.499 157.15 418.413 155.845C418.155 151.932 414.908 149.089 410.991 149.347C409.903 149.419 408.83 149.708 407.785 150.432L417.757 159.164Z" fill="black"/>
<path d="M405.128 153.229C404.547 154.359 404.183 155.475 404.269 156.779C404.527 160.693 407.774 163.536 411.691 163.277C412.996 163.191 414.056 162.685 415.1 161.961L405.128 153.229Z" fill="black"/>
<path d="M313.971 33.4647C314.349 32.5664 314.713 31.4506 314.627 30.1462C314.369 26.2328 311.122 23.3899 307.205 23.6481C306.117 23.7198 305.044 24.009 303.999 24.7329L313.971 33.4647Z" fill="black"/>
<path d="M301.125 27.5455C300.544 28.6755 300.18 29.7913 300.266 31.0957C300.524 35.0091 303.771 37.852 307.688 37.5938C308.993 37.5078 310.053 37.0012 311.098 36.2773L301.125 27.5455Z" fill="black"/>
<path d="M322.671 165.43C323.048 164.531 323.412 163.416 323.326 162.111C323.068 158.198 319.821 155.355 315.904 155.613C314.816 155.685 313.743 155.974 312.698 156.698L322.671 165.43Z" fill="black"/>
<path d="M309.824 159.51C309.243 160.64 308.88 161.756 308.966 163.061C309.224 166.974 312.471 169.817 316.387 169.559C317.693 169.473 318.752 168.966 319.797 168.242L309.824 159.51Z" fill="black"/>
<path d="M217.581 39.8202C217.958 38.9219 218.322 37.8061 218.236 36.5017C217.978 32.5883 214.731 29.7454 210.815 30.0036C209.727 30.0753 208.653 30.3644 207.608 31.0884L217.581 39.8202Z" fill="black"/>
<path d="M204.951 33.8853C204.37 35.0154 204.007 36.1311 204.093 37.4356C204.351 41.349 207.597 44.1919 211.514 43.9337C212.82 43.8476 213.879 43.3411 214.924 42.6171L204.951 33.8853Z" fill="black"/>
<path d="M226.281 171.789C226.659 170.891 227.022 169.775 226.936 168.47C226.678 164.557 223.431 161.714 219.515 161.972C218.427 162.044 217.353 162.333 216.308 163.057L226.281 171.789Z" fill="black"/>
<path d="M213.651 165.854C213.07 166.984 212.707 168.1 212.793 169.404C213.051 173.318 216.298 176.161 220.214 175.902C221.52 175.816 222.579 175.31 223.624 174.586L213.651 165.854Z" fill="black"/>
<path d="M127.282 45.7733C127.66 44.875 128.023 43.7592 127.937 42.4548C127.679 38.5414 124.432 35.6985 120.516 35.9567C119.428 36.0284 118.354 36.3176 117.309 37.0415L127.282 45.7733Z" fill="black"/>
<path d="M114.652 39.8384C114.071 40.9685 113.708 42.0843 113.794 43.3887C114.052 47.3021 117.299 50.145 121.215 49.8868C122.521 49.8007 123.58 49.2942 124.625 48.5702L114.652 39.8384Z" fill="black"/>
<path d="M135.982 177.742C136.36 176.844 136.723 175.728 136.637 174.424C136.379 170.51 133.133 167.667 129.216 167.925C128.128 167.997 127.054 168.286 126.009 169.01L135.982 177.742Z" fill="black"/>
<path d="M123.353 171.807C122.771 172.937 122.408 174.053 122.494 175.357C122.752 179.271 125.999 182.114 129.915 181.856C131.221 181.769 132.28 181.263 133.325 180.539L123.353 171.807Z" fill="black"/>
<path d="M29.151 52.2421C29.5288 51.3437 29.8923 50.228 29.8063 48.9235C29.5483 45.0102 26.3015 42.1673 22.3849 42.4255C21.297 42.4972 20.2234 42.7863 19.1784 43.5103L29.151 52.2421Z" fill="black"/>
<path d="M16.5215 46.3072C15.9404 47.4373 15.5769 48.553 15.6629 49.8575C15.9209 53.7708 19.1678 56.6137 23.0843 56.3555C24.3899 56.2695 25.4491 55.7629 26.4941 55.039L16.5215 46.3072Z" fill="black"/>
<path d="M33.3785 116.379C33.7563 115.48 34.1199 114.365 34.0339 113.06C33.7759 109.147 30.529 106.304 26.6124 106.562C25.5245 106.634 24.4509 106.923 23.406 107.647L33.3785 116.379Z" fill="black"/>
<path d="M20.7491 110.444C20.168 111.574 19.8045 112.69 19.8905 113.994C20.1484 117.908 23.3953 120.75 27.3119 120.492C28.6174 120.406 29.6767 119.9 30.7216 119.176L20.7491 110.444Z" fill="black"/>
<path d="M413.286 91.3319C413.664 90.4336 414.027 89.3178 413.941 88.0134C413.683 84.1 410.436 81.2571 406.52 81.5153C405.432 81.587 404.358 81.8762 403.313 82.6001L413.286 91.3319Z" fill="black"/>
<path d="M400.656 85.397C400.075 86.5271 399.712 87.6428 399.798 88.9473C400.056 92.8607 403.303 95.7036 407.219 95.4454C408.525 95.3593 409.584 94.8528 410.629 94.1288L400.656 85.397Z" fill="black"/>
<path d="M37.8512 184.211C38.229 183.312 38.5925 182.197 38.5065 180.892C38.2485 176.979 35.0017 174.136 31.0851 174.394C29.9972 174.466 28.9236 174.755 27.8786 175.479L37.8512 184.211Z" fill="black"/>
<path d="M25.2217 178.276C24.6406 179.406 24.2771 180.522 24.3631 181.826C24.6211 185.74 27.868 188.582 31.7845 188.324C33.0901 188.238 34.1493 187.732 35.1943 187.008L25.2217 178.276Z" fill="black"/>
</g>
<defs>
<clipPath id="clip0_631_3218">
<rect width="421.726" height="175.612" fill="white" transform="translate(0 27.7422) rotate(-3.7718)"/>
</clipPath>
</defs>
</svg>
