<svg width="32" height="32" viewBox="0 0 32 32" fill="none" xmlns="http://www.w3.org/2000/svg">
<path d="M17.7992 0.560547C19.5576 0.565236 20.4502 0.574615 21.2208 0.596499L21.524 0.607441C21.8741 0.619946 22.2196 0.635577 22.6369 0.654335C24.3001 0.732491 25.4349 0.995097 26.4305 1.38119C27.4622 1.77823 28.3313 2.31594 29.2003 3.18348C29.9952 3.96488 30.6102 4.9101 31.0026 5.95335C31.3887 6.94906 31.6513 8.08389 31.7294 9.74863C31.7482 10.1644 31.7638 10.5099 31.7763 10.8616L31.7857 11.1648C31.8091 11.9339 31.8185 12.8264 31.8216 14.585L31.8232 15.7511V17.7988C31.827 18.9389 31.815 20.0791 31.7872 21.2189L31.7779 21.5221C31.7654 21.8738 31.7497 22.2193 31.731 22.6351C31.6528 24.2998 31.3871 25.4331 31.0026 26.4304C30.6113 27.4742 29.9961 28.4196 29.2003 29.2002C28.4187 29.9948 27.4736 30.6098 26.4305 31.0025C25.4349 31.3886 24.3001 31.6512 22.6369 31.7294C22.266 31.7468 21.8951 31.7625 21.524 31.7763L21.2208 31.7856C20.4502 31.8075 19.5576 31.8185 17.7992 31.8216L16.6331 31.8232H14.587C13.4464 31.8271 12.3057 31.8151 11.1654 31.7872L10.8622 31.7778C10.4911 31.7638 10.1202 31.7476 9.74928 31.7294C8.08615 31.6512 6.95135 31.3886 5.9541 31.0025C4.911 30.6108 3.96619 29.9956 3.18587 29.2002C2.39033 28.4191 1.77475 27.4738 1.38207 26.4304C0.995987 25.4346 0.733388 24.2998 0.655234 22.6351C0.637819 22.2642 0.622188 21.8932 0.608341 21.5221L0.600526 21.2189C0.571722 20.0791 0.558694 18.9389 0.561449 17.7988V14.585C0.557086 13.4448 0.56855 12.3047 0.595837 11.1648L0.606778 10.8616C0.619283 10.5099 0.634914 10.1644 0.653671 9.74863C0.731825 8.08389 0.994424 6.95062 1.38051 5.95335C1.77302 4.90903 2.38982 3.96352 3.18744 3.18348C3.96756 2.38859 4.91175 1.77352 5.9541 1.38119C6.95135 0.995097 8.08459 0.732491 9.74928 0.654335C10.1651 0.635577 10.5121 0.619946 10.8622 0.607441L11.1654 0.598062C12.3052 0.570289 13.4453 0.558304 14.5855 0.56211L17.7992 0.560547ZM16.1923 8.3762C14.1195 8.3762 12.1317 9.19963 10.666 10.6654C9.20029 12.1311 8.37688 14.119 8.37688 16.1919C8.37688 18.2647 9.20029 20.2526 10.666 21.7184C12.1317 23.1841 14.1195 24.0075 16.1923 24.0075C18.2651 24.0075 20.253 23.1841 21.7187 21.7184C23.1843 20.2526 24.0078 18.2647 24.0078 16.1919C24.0078 14.119 23.1843 12.1311 21.7187 10.6654C20.253 9.19963 18.2651 8.3762 16.1923 8.3762ZM16.1923 11.5025C16.8081 11.5024 17.4179 11.6236 17.9869 11.8591C18.5559 12.0947 19.0728 12.44 19.5084 12.8754C19.9439 13.3108 20.2894 13.8277 20.5251 14.3966C20.7609 14.9655 20.8823 15.5753 20.8824 16.1911C20.8825 16.8069 20.7613 17.4167 20.5257 17.9857C20.2902 18.5547 19.9448 19.0717 19.5095 19.5072C19.0741 19.9427 18.5572 20.2882 17.9883 20.524C17.4194 20.7597 16.8097 20.8811 16.1939 20.8812C14.9502 20.8812 13.7575 20.3872 12.8781 19.5078C11.9987 18.6283 11.5046 17.4356 11.5046 16.1919C11.5046 14.9481 11.9987 13.7554 12.8781 12.876C13.7575 11.9965 14.9502 11.5025 16.1939 11.5025M24.4001 6.0315C23.8819 6.0315 23.3849 6.23736 23.0185 6.60379C22.6521 6.97022 22.4462 7.46721 22.4462 7.98542C22.4462 8.50363 22.6521 9.00061 23.0185 9.36704C23.3849 9.73347 23.8819 9.93933 24.4001 9.93933C24.9183 9.93933 25.4153 9.73347 25.7817 9.36704C26.1481 9.00061 26.354 8.50363 26.354 7.98542C26.354 7.46721 26.1481 6.97022 25.7817 6.60379C25.4153 6.23736 24.9183 6.0315 24.4001 6.0315Z" fill="white"/>
</svg>
