<svg width="244" height="140" viewBox="0 0 244 140" fill="none" xmlns="http://www.w3.org/2000/svg">
<path d="M230.392 73.2919C230.392 64.8891 230.392 56.533 230.439 48.1302C230.439 47.2899 230.205 46.683 229.595 46.0761C224.949 41.8281 220.304 37.5333 215.659 33.2385C215.377 33.0051 215.096 32.7717 214.626 32.3516V61.4346L214.673 76.1395C214.72 84.0755 214.767 92.0581 214.673 99.9941C214.673 101.675 214.251 103.449 213.688 105.036C212.984 107.043 211.436 108.304 209.277 108.724C204.819 109.517 201.629 107.23 200.737 102.655C200.502 101.488 200.409 100.274 200.221 99.1071H184.689C184.642 99.3406 184.596 99.4806 184.642 99.6207C184.783 101.114 184.83 102.608 185.065 104.102C186.332 111.898 190.273 117.593 197.922 120.394C202.145 121.935 206.509 122.168 210.919 121.795C214.861 121.421 218.662 120.441 221.993 118.2C227.577 114.512 230.017 109.004 230.392 102.562C230.674 98.3136 230.486 94.0655 230.533 89.8174V88.2769C230.392 88.3236 230.392 73.5253 230.392 73.2919Z" fill="white"/>
<path d="M140.77 17.1328C131.995 23.8551 42.0908 102.748 41.1992 104.429C41.2461 104.522 41.34 104.569 41.3869 104.662C74.5146 76.606 107.642 48.5499 140.77 20.4472C147.949 26.2825 155.175 32.1645 162.402 38.0464C169.675 43.9284 176.948 49.8104 184.268 55.6456C191.494 61.4342 198.767 67.1295 206.04 72.8714C206.134 72.7313 206.275 72.5913 206.368 72.4512C184.502 54.0118 162.636 35.5723 140.77 17.1328Z" fill="white"/>
<path d="M154.19 139.534C154.19 136.453 154.19 133.465 154.19 130.478C155.081 133.185 155.785 135.846 156.489 138.554C156.63 139.161 156.723 139.627 157.568 139.627C158.366 139.627 158.694 139.347 158.835 138.6C158.976 137.807 159.21 137.013 159.445 136.22C159.961 134.166 160.524 132.158 161.087 130.104C161.181 130.104 161.228 130.104 161.322 130.151C161.322 133.279 161.322 136.36 161.322 139.534C162.073 139.534 162.73 139.534 163.433 139.534C163.433 135.099 163.433 130.711 163.433 126.323C160.337 125.809 160.337 125.809 159.633 128.657C159.445 129.357 159.304 130.011 159.117 130.711C158.694 132.345 158.272 133.932 157.85 135.566C157.756 135.566 157.709 135.566 157.615 135.566C156.77 132.438 155.973 129.311 155.128 126.276C154.049 126.276 153.11 126.276 152.125 126.276C152.125 130.711 152.125 135.099 152.125 139.581C152.782 139.534 153.392 139.534 154.19 139.534Z" fill="white"/>
<path d="M142.693 65.3552C145.837 65.3552 148.887 65.3552 151.937 65.3552C151.937 61.9941 151.937 58.6797 151.937 55.3652C148.84 55.3652 145.79 55.3652 142.693 55.3652C142.693 58.6797 142.693 61.9941 142.693 65.3552Z" fill="white"/>
<path d="M142.74 51.9101C145.931 51.9101 148.934 51.9101 151.937 51.9101C151.937 48.549 151.937 45.2346 151.937 41.9668C148.84 41.9668 145.79 41.9668 142.74 41.9668C142.74 45.2812 142.74 48.549 142.74 51.9101Z" fill="white"/>
<path d="M129.555 41.9199C129.555 45.3277 129.555 48.5955 129.555 51.9099C132.652 51.9099 135.702 51.9099 138.705 51.9099C138.705 48.5488 138.705 45.2344 138.705 41.9199C135.608 41.9199 132.605 41.9199 129.555 41.9199Z" fill="white"/>
<path d="M138.705 55.3652C135.561 55.3652 132.558 55.3652 129.508 55.3652C129.508 58.7264 129.508 61.9941 129.508 65.3552C132.605 65.3552 135.608 65.3552 138.705 65.3552C138.705 61.9941 138.705 58.7264 138.705 55.3652Z" fill="white"/>
<path d="M229.361 127.489C227.249 125.109 223.777 125.295 222.228 127.956C220.445 130.991 220.445 134.212 221.947 137.339C223.214 139.907 226.404 140.747 228.844 139.253C229.126 139.067 229.501 138.693 229.501 138.413C229.548 136.359 229.548 134.258 229.548 132.111C228.281 132.111 227.108 132.111 225.888 132.111C225.888 132.764 225.888 133.325 225.888 133.932C226.404 133.978 226.874 134.025 227.437 134.072C227.437 134.818 227.437 135.519 227.437 136.219C227.437 137.619 226.592 138.273 225.372 137.619C224.668 137.246 223.871 136.406 223.73 135.659C223.448 134.072 223.308 132.344 223.589 130.757C224.058 127.956 225.841 127.349 228.234 129.03C228.563 128.516 228.938 128.003 229.361 127.489Z" fill="white"/>
<path d="M149.684 137.526C148.37 137.526 147.103 137.526 145.789 137.526C145.789 136.172 145.789 134.958 145.789 133.605C146.962 133.605 148.042 133.605 149.215 133.605C149.215 132.951 149.215 132.391 149.215 131.691C148.042 131.691 146.916 131.691 145.789 131.691C145.789 130.477 145.789 129.403 145.789 128.236C147.056 128.236 148.276 128.236 149.496 128.236C149.496 127.489 149.496 126.882 149.496 126.275C147.479 126.275 145.555 126.275 143.584 126.275C143.584 130.757 143.584 135.098 143.584 139.58C145.649 139.58 147.619 139.58 149.684 139.58C149.684 138.88 149.684 138.319 149.684 137.526Z" fill="white"/>
<path d="M188.912 126.229C188.912 130.71 188.912 135.098 188.912 139.533C190.977 139.533 192.994 139.533 195.012 139.533C195.012 138.833 195.012 138.226 195.012 137.479C193.651 137.479 192.384 137.479 191.117 137.479C191.117 136.125 191.117 134.911 191.117 133.558C192.291 133.558 193.417 133.558 194.543 133.558C194.543 132.857 194.543 132.344 194.543 131.644C193.37 131.644 192.244 131.644 191.117 131.644C191.117 130.43 191.117 129.356 191.117 128.189C192.384 128.189 193.604 128.189 194.824 128.189C194.824 127.442 194.824 126.835 194.824 126.229C192.807 126.229 190.883 126.229 188.912 126.229Z" fill="white"/>
<path d="M197.312 126.228C197.312 130.71 197.312 135.098 197.312 139.533C199.33 139.533 201.301 139.533 203.225 139.533C203.225 138.833 203.225 138.226 203.225 137.479C202.286 137.479 201.442 137.432 200.55 137.479C199.752 137.525 199.518 137.199 199.565 136.452C199.612 133.604 199.565 130.803 199.565 127.956C199.565 127.395 199.565 126.789 199.565 126.182C198.767 126.228 198.11 126.228 197.312 126.228Z" fill="white"/>
<path d="M207.213 126.275C206.415 126.275 205.712 126.275 205.055 126.275C205.055 130.757 205.055 135.145 205.055 139.58C205.805 139.58 206.462 139.58 207.213 139.58C207.213 135.145 207.213 130.757 207.213 126.275Z" fill="white"/>
<path d="M132.369 75.7188C132.838 75.7188 133.214 75.7188 133.589 75.7188C143.678 75.7188 153.766 75.7188 163.901 75.7188C166.67 75.7188 169.345 75.9522 171.925 77.1192C176.899 79.36 179.151 83.4213 179.527 88.603C179.996 94.9985 177.134 99.5734 171.597 102.608C171.175 102.841 170.705 103.075 170.189 103.355C173.849 109.33 177.415 115.212 181.075 121.187C180.606 121.234 180.278 121.281 179.902 121.281C175.116 121.281 170.33 121.281 165.544 121.327C164.699 121.327 164.277 121.047 163.901 120.347C161.086 115.399 158.224 110.45 155.408 105.455C154.986 104.708 154.517 104.428 153.625 104.428C151.701 104.475 149.731 104.428 147.666 104.428C147.666 110.03 147.666 115.585 147.666 121.187C142.505 121.187 137.484 121.187 132.416 121.187C132.369 106.109 132.369 90.9838 132.369 75.7188ZM147.713 92.3843C147.995 92.431 148.229 92.4777 148.464 92.4777C152.875 92.4777 157.238 92.4777 161.649 92.4777C163.291 92.4777 164.277 91.544 164.277 90.0969C164.277 88.603 163.385 87.7628 161.649 87.7161C159.303 87.7161 157.004 87.7161 154.658 87.7161C152.358 87.7161 150.106 87.7161 147.713 87.7161C147.713 89.35 147.713 90.8438 147.713 92.3843Z" fill="white"/>
<path d="M94.5976 104.428C94.5976 110.124 94.5976 115.585 94.5976 121.187C89.483 121.187 84.4622 121.187 79.3945 121.187C79.3945 106.062 79.3945 90.9838 79.3945 75.7188C79.8168 75.7188 80.2391 75.7188 80.6615 75.7188C90.7968 75.7188 100.932 75.7188 111.068 75.7188C114.728 75.7188 118.294 76.2323 121.297 78.473C125.661 81.7408 126.928 86.3623 126.458 91.4507C125.989 96.7257 122.939 100.32 118.294 102.701C117.965 102.888 117.59 103.028 117.121 103.261C120.734 109.237 124.347 115.119 128.007 121.141C127.538 121.187 127.256 121.234 126.975 121.234C122.141 121.234 117.308 121.234 112.475 121.234C111.678 121.234 111.255 121.001 110.88 120.3C108.018 115.259 105.108 110.264 102.246 105.222C101.871 104.615 101.542 104.335 100.791 104.335C98.7738 104.475 96.7561 104.428 94.5976 104.428ZM94.6445 92.431C99.6184 92.431 104.498 92.4777 109.378 92.3843C110.364 92.3843 110.974 91.5907 111.161 90.6104C111.537 88.8831 110.551 87.7161 108.675 87.7161C104.264 87.6694 99.8061 87.7161 95.3953 87.7161C95.1138 87.7161 94.8792 87.8095 94.5976 87.8095C94.6445 89.3966 94.6445 90.8905 94.6445 92.431Z" fill="white"/>
<path d="M140.77 17.1328C162.636 35.5723 184.502 54.0585 206.368 72.4979C206.275 72.638 206.134 72.778 206.04 72.9181C198.767 67.1762 191.494 61.4809 184.268 55.6923C176.948 49.8571 169.675 43.9751 162.401 38.0931C155.175 32.2112 147.949 26.3292 140.77 20.4939C107.642 48.55 74.5146 76.606 41.4338 104.709C41.3869 104.615 41.293 104.569 41.2461 104.475C42.0907 102.748 131.995 23.8551 140.77 17.1328Z" fill="#C90C10"/>
<path d="M154.19 139.534C153.392 139.534 152.735 139.534 152.078 139.534C152.078 135.099 152.078 130.711 152.078 126.229C153.064 126.229 154.002 126.229 155.081 126.229C155.879 129.31 156.724 132.391 157.568 135.519C157.662 135.519 157.709 135.519 157.803 135.519C158.225 133.885 158.647 132.298 159.07 130.664C159.257 129.964 159.445 129.31 159.586 128.61C160.29 125.763 160.29 125.763 163.387 126.276C163.387 130.664 163.387 135.052 163.387 139.487C162.683 139.487 162.026 139.487 161.275 139.487C161.275 136.313 161.275 133.185 161.275 130.104C161.181 130.104 161.134 130.104 161.04 130.057C160.477 132.111 159.961 134.119 159.398 136.173C159.164 136.966 158.929 137.76 158.788 138.554C158.647 139.3 158.319 139.581 157.521 139.581C156.677 139.581 156.583 139.114 156.442 138.507C155.738 135.799 155.034 133.092 154.143 130.431C154.19 133.465 154.19 136.453 154.19 139.534Z" fill="white"/>
<path d="M142.693 65.3552C142.693 61.9941 142.693 58.6797 142.693 55.3652C145.79 55.3652 148.793 55.3652 151.937 55.3652C151.937 58.7264 151.937 61.9941 151.937 65.3552C148.887 65.3552 145.884 65.3552 142.693 65.3552Z" fill="white"/>
<path d="M142.74 51.9101C142.74 48.5957 142.74 45.2812 142.74 41.9668C145.837 41.9668 148.84 41.9668 151.937 41.9668C151.937 45.2812 151.937 48.549 151.937 51.9101C148.934 51.9101 145.884 51.9101 142.74 51.9101Z" fill="white"/>
<path d="M129.555 41.9199C132.652 41.9199 135.608 41.9199 138.705 41.9199C138.705 45.2344 138.705 48.5488 138.705 51.9099C135.702 51.9099 132.652 51.9099 129.555 51.9099C129.555 48.5955 129.555 45.3277 129.555 41.9199Z" fill="white"/>
<path d="M138.705 55.3652C138.705 58.7264 138.705 61.9941 138.705 65.3552C135.655 65.3552 132.605 65.3552 129.508 65.3552C129.508 62.0408 129.508 58.7264 129.508 55.3652C132.558 55.3652 135.561 55.3652 138.705 55.3652Z" fill="white"/>
<path d="M120.124 132.111C118.904 128.983 119.138 127.116 120.921 126.183C122.282 125.482 124.065 125.762 124.91 126.883C126.13 128.517 125.614 130.384 123.127 132.671C123.549 133.278 123.971 133.885 124.534 134.679C125.098 133.185 125.567 131.598 127.725 132.485C127.256 133.465 126.834 134.492 126.271 135.472C125.895 136.173 125.989 136.686 126.458 137.246C127.021 137.9 127.444 138.647 127.96 139.347C126.224 139.86 125.661 139.72 124.534 138.367C123.643 139.44 122.47 140.141 121.062 139.814C120.311 139.627 119.467 139.254 118.951 138.693C117.261 137.013 117.871 134.165 120.124 132.111ZM121.344 133.792C120.171 134.632 119.842 136.126 120.499 137.2C120.968 137.946 121.86 138.18 122.517 137.713C123.221 137.2 123.455 136.639 122.798 135.892C122.282 135.192 121.813 134.492 121.344 133.792ZM121.766 131.178C123.127 130.617 123.737 129.684 123.408 128.657C123.408 128.61 123.361 128.563 123.361 128.517C122.986 127.863 122.001 127.816 121.578 128.423C121.531 128.517 121.484 128.563 121.484 128.657C121.438 129.45 121.672 130.291 121.766 131.178Z" fill="white"/>
<path d="M177.885 126.182C180.794 126.322 183.844 125.435 185.486 128.563C187.035 131.55 187.082 134.771 185.252 137.666C183.516 140.373 180.559 139.486 177.932 139.626C177.885 135.098 177.885 130.71 177.885 126.182ZM180.184 137.432C182.061 137.759 183.187 137.199 183.75 135.518C184.36 133.698 184.36 131.877 183.703 130.103C183.093 128.516 181.92 127.956 180.184 128.423C180.184 131.41 180.184 134.445 180.184 137.432Z" fill="white"/>
<path d="M18.9101 130.057C19.4262 131.831 19.4731 133.745 18.957 135.565C18.7693 136.312 18.5347 137.012 18.2062 137.666C16.6108 140.7 12.5754 140.84 10.8862 137.899C9.00928 134.632 9.00928 131.177 10.8862 127.909C12.4816 125.108 16.4231 125.108 18.0185 127.909C18.4408 128.563 18.6754 129.263 18.9101 130.057ZM16.4701 135.752C17.0331 133.978 17.0331 132.017 16.517 130.243C16.4231 129.917 16.2824 129.543 16.1416 129.216C15.4847 127.723 13.8424 127.629 12.9039 128.89C11.7308 130.477 11.6839 135.052 12.8101 136.732C13.7954 138.179 15.3439 138.179 16.0947 136.639C16.2354 136.312 16.3762 136.032 16.4701 135.752Z" fill="white"/>
<path d="M56.9652 139.533C56.6367 139.58 56.4959 139.58 56.3082 139.626C54.9944 139.906 54.2905 139.393 53.9621 138.086C53.6805 136.965 53.1175 135.892 52.789 134.771C52.5544 133.978 52.1321 133.791 51.2875 134.118C51.2875 135.892 51.2875 137.666 51.2875 139.58C50.4898 139.58 49.8328 139.58 49.0352 139.58C49.0352 135.192 49.0352 130.803 49.0352 126.322C50.7244 126.322 52.3667 126.182 53.9621 126.369C55.4167 126.509 56.3082 127.582 56.5428 129.076C56.9182 131.083 56.3552 132.391 54.619 133.604C55.3698 135.472 56.1675 137.432 56.9652 139.533ZM51.2875 132.204C52.4136 132.204 53.6336 132.484 54.0559 131.27C54.3375 130.57 54.2905 129.496 53.9621 128.843C53.4459 127.862 52.3198 128.049 51.2875 128.236C51.2875 129.543 51.2875 130.757 51.2875 132.204Z" fill="white"/>
<path d="M133.637 126.23C135.232 126.23 136.781 126.136 138.282 126.276C139.784 126.416 140.769 127.397 141.097 128.751C141.567 130.851 141.051 132.252 139.221 133.559C139.971 135.473 140.722 137.433 141.473 139.394C139.549 139.954 139.221 139.814 138.564 138.04C138.141 136.92 137.719 135.846 137.344 134.726C137.109 133.979 136.687 133.746 135.795 134.072C135.795 134.913 135.795 135.846 135.795 136.733C135.795 137.62 135.795 138.507 135.795 139.534C135.044 139.534 134.387 139.534 133.637 139.534C133.637 135.146 133.637 130.805 133.637 126.23ZM135.889 132.158C136.921 132.205 138.094 132.438 138.611 131.411C138.939 130.711 138.939 129.591 138.611 128.891C138.141 127.864 136.968 128.144 135.889 128.19C135.889 129.544 135.889 130.805 135.889 132.158Z" fill="white"/>
<path d="M229.361 127.488C228.938 128.002 228.563 128.515 228.188 128.982C225.841 127.302 224.011 127.908 223.542 130.709C223.261 132.297 223.401 133.977 223.683 135.611C223.824 136.358 224.621 137.198 225.325 137.572C226.592 138.225 227.39 137.572 227.39 136.171C227.39 135.471 227.39 134.771 227.39 134.024C226.827 133.977 226.358 133.93 225.841 133.884C225.841 133.277 225.841 132.717 225.841 132.063C227.061 132.063 228.234 132.063 229.501 132.063C229.501 134.211 229.548 136.265 229.454 138.365C229.454 138.645 229.079 139.066 228.798 139.206C226.311 140.699 223.12 139.859 221.9 137.292C220.398 134.164 220.398 130.943 222.181 127.908C223.777 125.294 227.249 125.108 229.361 127.488Z" fill="white"/>
<path d="M149.684 137.526C149.684 138.319 149.684 138.879 149.684 139.533C147.619 139.533 145.649 139.533 143.584 139.533C143.584 135.098 143.584 130.71 143.584 126.229C145.555 126.229 147.479 126.229 149.496 126.229C149.496 126.835 149.496 127.442 149.496 128.189C148.276 128.189 147.056 128.189 145.789 128.189C145.789 129.403 145.789 130.43 145.789 131.644C146.916 131.644 148.042 131.644 149.215 131.644C149.215 132.344 149.215 132.904 149.215 133.558C148.089 133.558 146.962 133.558 145.789 133.558C145.789 134.911 145.789 136.125 145.789 137.479C147.103 137.526 148.37 137.526 149.684 137.526Z" fill="white"/>
<path d="M188.912 126.229C190.93 126.229 192.807 126.229 194.778 126.229C194.778 126.882 194.778 127.489 194.778 128.189C193.558 128.189 192.338 128.189 191.071 128.189C191.071 129.356 191.071 130.43 191.071 131.644C192.197 131.644 193.323 131.644 194.496 131.644C194.496 132.344 194.496 132.857 194.496 133.558C193.37 133.558 192.291 133.558 191.071 133.558C191.071 134.911 191.071 136.125 191.071 137.479C192.338 137.479 193.604 137.479 194.965 137.479C194.965 138.226 194.965 138.833 194.965 139.533C192.948 139.533 190.977 139.533 188.865 139.533C188.912 135.098 188.912 130.71 188.912 126.229Z" fill="white"/>
<path d="M197.312 126.229C198.11 126.229 198.767 126.229 199.612 126.229C199.612 126.835 199.612 127.396 199.612 128.002C199.612 130.85 199.612 133.651 199.612 136.499C199.612 137.246 199.799 137.572 200.597 137.526C201.442 137.479 202.333 137.526 203.272 137.526C203.272 138.226 203.272 138.879 203.272 139.58C201.301 139.58 199.377 139.58 197.359 139.58C197.313 135.098 197.312 130.71 197.312 126.229Z" fill="white"/>
<path d="M207.213 126.275C207.213 130.757 207.213 135.098 207.213 139.58C206.462 139.58 205.805 139.58 205.055 139.58C205.055 135.145 205.055 130.757 205.055 126.275C205.712 126.275 206.415 126.275 207.213 126.275Z" fill="white"/>
<path d="M8.68064 138.087C7.69526 140.234 3.94141 140.701 2.01756 138.413C-0.234745 135.753 -0.281668 130.011 1.97064 127.35C3.80064 125.202 6.99141 125.249 8.68064 127.49C8.30526 127.957 7.92987 128.423 7.46064 128.984C7.22602 128.797 7.03833 128.61 6.80372 128.47C5.63064 127.583 4.36372 127.817 3.5191 129.03C2.34602 130.851 2.39295 135.006 3.61295 136.78C4.55141 138.087 5.72449 138.087 7.50756 136.733C7.88295 137.2 8.30526 137.666 8.68064 138.087Z" fill="white"/>
<path d="M28.0592 135.471C28.0592 132.577 28.0592 129.169 28.0592 126.182C28.7631 126.182 29.3261 126.182 29.9831 126.182C29.9831 130.57 29.9831 135.145 29.9831 139.533C28.3877 139.579 28.0592 139.579 27.4961 139.533C26.5108 137.105 24.9623 133.184 23.7423 130.803C23.7423 133.697 23.7423 136.592 23.7423 139.533C23.0385 139.533 22.4285 139.533 21.7246 139.533C21.7246 135.145 21.7246 130.756 21.7246 126.182C22.4285 126.182 23.7892 126.182 24.2115 126.182C25.1969 128.516 26.4169 131.597 27.3554 133.931C27.4961 134.304 27.6838 134.678 27.8715 135.098C27.9185 135.238 27.9654 135.378 28.0592 135.471Z" fill="white"/>
<path d="M32.002 138.366C32.3773 137.806 32.7527 137.339 33.175 136.779C33.5973 137.059 33.9727 137.339 34.395 137.526C35.3804 138.039 36.4596 137.806 36.9289 137.059C37.492 136.126 37.3043 135.052 36.3189 134.352C35.7089 133.931 35.052 133.605 34.395 133.231C32.8466 132.298 32.3304 130.897 32.5181 129.217C32.6589 127.769 33.3627 126.696 34.7704 126.136C36.3658 125.529 37.8673 125.715 39.2281 126.836C39.322 126.882 39.3689 127.022 39.4627 127.209C39.0873 127.676 38.712 128.19 38.3366 128.703C38.055 128.516 37.8204 128.376 37.5858 128.236C36.5535 127.676 35.4743 127.863 34.9581 128.656C34.395 129.59 34.6296 130.664 35.615 131.317C36.1312 131.691 36.6943 131.971 37.2573 132.251C38.8996 133.185 39.6504 134.585 39.3689 136.499C39.1343 138.039 38.3366 139.253 36.7412 139.673C35.005 140.234 33.3627 139.813 32.002 138.366Z" fill="white"/>
<path d="M58.8419 126.229C59.5926 126.229 60.2496 126.229 61.0003 126.229C61.0003 128.936 61.0003 131.597 61.0003 134.258C61.0003 135.005 61.0942 135.752 61.2819 136.452C61.4696 137.246 62.0796 137.712 62.9242 137.712C63.8157 137.712 64.3788 137.292 64.5665 136.499C64.7542 135.798 64.848 135.051 64.848 134.305C64.8949 131.644 64.848 128.983 64.848 126.229C65.6457 126.229 66.3496 126.229 67.0065 126.229C67.0065 129.636 67.1942 132.997 66.9596 136.359C66.7719 138.786 65.1296 139.953 62.7365 139.906C60.5311 139.86 58.9826 138.646 58.8419 136.312C58.7011 132.997 58.8419 129.683 58.8419 126.229Z" fill="white"/>
<path d="M77.1416 138.087C76.1562 140.234 72.4023 140.701 70.4785 138.413C68.2262 135.753 68.1793 130.011 70.4316 127.35C72.2616 125.202 75.4523 125.249 77.1416 127.49C76.7662 127.957 76.3908 128.423 75.9216 128.984C75.687 128.797 75.4993 128.61 75.2647 128.47C74.0916 127.583 72.8247 127.817 71.98 129.03C70.76 130.804 70.807 134.959 72.027 136.733C72.9654 138.04 74.1385 138.04 75.9216 136.686C76.3908 137.2 76.7662 137.666 77.1416 138.087Z" fill="white"/>
<path d="M78.0801 126.229C80.4732 126.229 82.8193 126.229 85.2124 126.229C85.2124 126.835 85.2124 127.396 85.2124 128.049C84.4616 128.096 83.7578 128.096 82.9132 128.142C82.9132 131.924 82.8662 135.705 82.8662 139.533C82.0685 139.533 81.3647 139.533 80.567 139.533C80.567 135.752 80.6139 131.97 80.6139 128.142C79.7224 128.096 78.9247 128.142 78.127 128.096C78.0801 127.489 78.0801 126.929 78.0801 126.229Z" fill="white"/>
<path d="M86.9492 126.229C87.7 126.229 88.31 126.229 89.0608 126.229C89.0608 130.663 89.0608 135.051 89.0608 139.533C88.4038 139.533 87.7469 139.533 86.9492 139.533C86.9492 135.098 86.9492 130.71 86.9492 126.229Z" fill="white"/>
<path d="M100.791 130.057C101.307 131.831 101.354 133.745 100.838 135.565C100.65 136.312 100.416 137.012 100.087 137.666C98.4917 140.7 94.4563 140.84 92.7671 137.899C90.8901 134.632 90.8901 131.177 92.7671 127.909C94.3625 125.108 98.304 125.108 99.8994 127.909C100.275 128.563 100.556 129.263 100.791 130.057ZM98.3509 135.752C98.914 133.978 98.914 132.017 98.3978 130.243C98.304 129.917 98.1632 129.543 98.0225 129.216C97.3655 127.723 95.7232 127.629 94.7848 128.89C93.6117 130.477 93.5648 135.052 94.6909 136.732C95.6763 138.179 97.2248 138.179 97.9755 136.639C98.1163 136.312 98.2571 136.032 98.3509 135.752Z" fill="white"/>
<path d="M40.3066 126.229C42.6997 126.229 45.0459 126.229 47.4389 126.229C47.4389 126.835 47.4389 127.396 47.4389 128.049C46.6882 128.096 45.9843 128.096 45.1397 128.142C45.1397 131.924 45.0928 135.705 45.0928 139.533C44.2951 139.533 43.5913 139.533 42.7936 139.533C42.7936 135.752 42.8405 131.97 42.8405 128.142C41.9489 128.096 41.1513 128.142 40.3536 128.096C40.3066 127.489 40.3066 126.929 40.3066 126.229Z" fill="white"/>
<path d="M109.893 135.471C109.893 132.577 109.893 129.169 109.893 126.182C110.597 126.182 111.16 126.182 111.817 126.182C111.817 130.57 111.817 135.145 111.817 139.533C110.222 139.579 109.893 139.579 109.33 139.533C108.345 137.105 106.796 133.184 105.576 130.803C105.576 133.697 105.576 136.592 105.576 139.533C104.872 139.533 104.262 139.533 103.559 139.533C103.559 135.145 103.559 130.756 103.559 126.182C104.262 126.182 105.623 126.182 106.046 126.182C107.031 128.516 108.251 131.597 109.189 133.931C109.33 134.304 109.518 134.678 109.706 135.098C109.752 135.238 109.846 135.378 109.893 135.471Z" fill="white"/>
<path d="M175.164 130.057C175.68 131.831 175.727 133.745 175.211 135.565C175.023 136.312 174.789 137.012 174.46 137.666C172.865 140.7 168.829 140.84 167.14 137.899C165.263 134.632 165.263 131.177 167.14 127.909C168.735 125.108 172.677 125.108 174.272 127.909C174.648 128.563 174.929 129.263 175.164 130.057ZM172.677 135.752C173.24 133.978 173.24 132.017 172.724 130.243C172.63 129.917 172.489 129.543 172.349 129.216C171.692 127.723 170.049 127.629 169.111 128.89C167.938 130.477 167.891 135.052 169.017 136.732C170.002 138.179 171.551 138.179 172.302 136.639C172.489 136.312 172.583 136.032 172.677 135.752Z" fill="white"/>
<path d="M216.596 135.471C216.596 132.577 216.596 129.169 216.596 126.182C217.3 126.182 217.863 126.182 218.52 126.182C218.52 130.57 218.52 135.145 218.52 139.533C216.925 139.579 216.596 139.579 216.033 139.533C215.048 137.105 213.499 133.184 212.279 130.803C212.279 133.697 212.279 136.592 212.279 139.533C211.576 139.533 210.966 139.533 210.262 139.533C210.262 135.145 210.262 130.756 210.262 126.182C210.966 126.182 212.326 126.182 212.749 126.182C213.734 128.516 214.954 131.597 215.892 133.931C216.033 134.304 216.221 134.678 216.409 135.098C216.456 135.238 216.549 135.378 216.596 135.471Z" fill="white"/>
<path d="M230.815 75.5318C234.944 78.893 239.026 82.3474 243.108 85.7552C243.39 85.9887 243.718 86.1287 244 86.3154V90.7969C240.856 90.7969 237.759 90.7036 234.615 90.7969C233.302 90.8436 232.222 90.5168 231.331 89.5832C230.955 89.2097 230.486 88.883 229.829 88.3695L213.312 74.6916C202.473 65.7286 191.634 56.7656 180.795 47.8493C170.894 39.6799 160.993 31.5105 151.092 23.3878C147.667 20.5402 144.195 17.7392 140.628 14.7516C103.888 46.3554 67.2408 77.9593 30.5469 109.563C30.5938 109.657 30.6408 109.75 30.6408 109.843H75.4054V121.047H0C0.516154 120.534 1.07923 120.067 1.40769 119.787C8.54 113.625 15.7192 107.462 22.8515 101.3C32.94 92.5709 43.0754 83.888 53.1638 75.1584C64.4723 65.4018 75.8277 55.6452 87.1831 45.8886C99.5238 35.2451 111.818 24.6482 124.158 14.0514C124.44 13.8179 124.722 13.5378 125.05 13.3044C125.988 12.5108 126.88 11.7172 127.818 10.9236L133.074 6.48883L140.675 0L156.019 13.0243H155.972C169.862 24.6015 183.798 36.2254 197.687 47.8026C202.708 51.9573 207.682 56.1587 212.702 60.3134L230.815 75.5318Z" fill="#C90C10"/>
</svg>
