<svg width="265" height="153" viewBox="0 0 265 153" fill="none" xmlns="http://www.w3.org/2000/svg">
<g clip-path="url(#clip0_282_5268)">
<path d="M250.22 80.0964C250.22 70.9133 250.22 61.7813 250.271 52.5982C250.271 51.6799 250.016 51.0167 249.354 50.3535C244.309 45.7109 239.264 41.0174 234.218 36.3238C233.913 36.0687 233.607 35.8136 233.097 35.3545V67.1381L233.148 83.2085C233.199 91.8813 233.25 100.605 233.148 109.278C233.148 111.115 232.69 113.053 232.078 114.788C231.314 116.982 229.632 118.359 227.288 118.818C222.446 119.686 218.981 117.186 218.013 112.186C217.758 110.911 217.656 109.584 217.452 108.309H200.584C200.533 108.564 200.482 108.717 200.533 108.87C200.686 110.503 200.737 112.135 200.991 113.768C202.367 122.287 206.648 128.512 214.955 131.573C219.541 133.256 224.281 133.511 229.071 133.103C233.352 132.695 237.48 131.624 241.098 129.175C247.163 125.144 249.813 119.124 250.22 112.084C250.526 107.442 250.322 102.799 250.373 98.1564V96.4729C250.22 96.5239 250.22 80.3515 250.22 80.0964Z" fill="white"/>
<path d="M152.885 18.7236C143.355 26.0701 45.7124 112.289 44.7441 114.125C44.7951 114.227 44.897 114.278 44.948 114.381C80.9268 83.7193 116.906 53.0581 152.885 22.3458C160.682 28.723 168.53 35.1511 176.378 41.5792C184.277 48.0074 192.176 54.4355 200.126 60.8127C207.974 67.1388 215.873 73.3628 223.772 79.6379C223.874 79.4849 224.027 79.3318 224.129 79.1788C200.381 59.0271 176.633 38.8753 152.885 18.7236Z" fill="white"/>
<path d="M167.459 152.49C167.459 149.123 167.459 145.858 167.459 142.593C168.427 145.552 169.192 148.46 169.956 151.419C170.109 152.082 170.211 152.592 171.128 152.592C171.995 152.592 172.351 152.286 172.504 151.47C172.657 150.602 172.912 149.735 173.167 148.868C173.727 146.623 174.339 144.429 174.95 142.185C175.052 142.185 175.103 142.185 175.205 142.236C175.205 145.654 175.205 149.021 175.205 152.49C176.021 152.49 176.734 152.49 177.499 152.49C177.499 147.643 177.499 142.848 177.499 138.052C174.135 137.491 174.135 137.491 173.371 140.603C173.167 141.368 173.014 142.083 172.81 142.848C172.351 144.633 171.893 146.368 171.434 148.154C171.332 148.154 171.281 148.154 171.179 148.154C170.262 144.735 169.396 141.317 168.478 138.001C167.306 138.001 166.287 138.001 165.217 138.001C165.217 142.848 165.217 147.643 165.217 152.541C165.93 152.49 166.593 152.49 167.459 152.49Z" fill="white"/>
<path d="M154.975 71.4235C158.389 71.4235 161.702 71.4235 165.014 71.4235C165.014 67.7503 165.014 64.1281 165.014 60.5059C161.651 60.5059 158.338 60.5059 154.975 60.5059C154.975 64.1281 154.975 67.7503 154.975 71.4235Z" fill="white"/>
<path d="M155.025 56.7309C158.491 56.7309 161.752 56.7309 165.014 56.7309C165.014 53.0577 165.014 49.4354 165.014 45.8643C161.65 45.8643 158.338 45.8643 155.025 45.8643C155.025 49.4865 155.025 53.0577 155.025 56.7309Z" fill="white"/>
<path d="M140.705 45.8135C140.705 49.5377 140.705 53.1089 140.705 56.7311C144.069 56.7311 147.381 56.7311 150.643 56.7311C150.643 53.0579 150.643 49.4357 150.643 45.8135C147.279 45.8135 144.018 45.8135 140.705 45.8135Z" fill="white"/>
<path d="M150.643 60.5059C147.228 60.5059 143.967 60.5059 140.654 60.5059C140.654 64.1791 140.654 67.7503 140.654 71.4235C144.018 71.4235 147.279 71.4235 150.643 71.4235C150.643 67.7503 150.643 64.1791 150.643 60.5059Z" fill="white"/>
<path d="M249.101 139.328C246.807 136.726 243.036 136.93 241.354 139.838C239.418 143.154 239.418 146.674 241.049 150.092C242.425 152.898 245.89 153.816 248.54 152.184C248.846 151.98 249.253 151.572 249.253 151.266C249.304 149.021 249.304 146.725 249.304 144.378C247.928 144.378 246.654 144.378 245.329 144.378C245.329 145.093 245.329 145.705 245.329 146.368C245.89 146.419 246.4 146.47 247.011 146.521C247.011 147.337 247.011 148.103 247.011 148.868C247.011 150.398 246.094 151.113 244.769 150.398C244.004 149.99 243.138 149.072 242.985 148.256C242.679 146.521 242.527 144.633 242.832 142.899C243.342 139.838 245.278 139.175 247.877 141.011C248.234 140.45 248.642 139.889 249.101 139.328Z" fill="white"/>
<path d="M162.566 150.296C161.139 150.296 159.764 150.296 158.337 150.296C158.337 148.817 158.337 147.49 158.337 146.011C159.611 146.011 160.783 146.011 162.057 146.011C162.057 145.296 162.057 144.684 162.057 143.919C160.783 143.919 159.56 143.919 158.337 143.919C158.337 142.593 158.337 141.419 158.337 140.144C159.713 140.144 161.038 140.144 162.363 140.144C162.363 139.327 162.363 138.664 162.363 138.001C160.171 138.001 158.082 138.001 155.941 138.001C155.941 142.899 155.941 147.643 155.941 152.541C158.184 152.541 160.324 152.541 162.566 152.541C162.566 151.776 162.566 151.163 162.566 150.296Z" fill="white"/>
<path d="M205.172 137.95C205.172 142.848 205.172 147.643 205.172 152.49C207.414 152.49 209.606 152.49 211.797 152.49C211.797 151.725 211.797 151.062 211.797 150.245C210.319 150.245 208.943 150.245 207.567 150.245C207.567 148.766 207.567 147.439 207.567 145.96C208.841 145.96 210.064 145.96 211.287 145.96C211.287 145.195 211.287 144.633 211.287 143.868C210.013 143.868 208.79 143.868 207.567 143.868C207.567 142.542 207.567 141.368 207.567 140.093C208.943 140.093 210.268 140.093 211.593 140.093C211.593 139.277 211.593 138.613 211.593 137.95C209.402 137.95 207.312 137.95 205.172 137.95Z" fill="white"/>
<path d="M214.293 137.95C214.293 142.848 214.293 147.644 214.293 152.49C216.484 152.49 218.625 152.49 220.714 152.49C220.714 151.725 220.714 151.062 220.714 150.246C219.695 150.246 218.778 150.195 217.809 150.246C216.943 150.297 216.688 149.939 216.739 149.123C216.79 146.011 216.739 142.95 216.739 139.838C216.739 139.226 216.739 138.563 216.739 137.899C215.873 137.95 215.159 137.95 214.293 137.95Z" fill="white"/>
<path d="M225.045 138.001C224.179 138.001 223.415 138.001 222.701 138.001C222.701 142.899 222.701 147.694 222.701 152.541C223.517 152.541 224.23 152.541 225.045 152.541C225.045 147.694 225.045 142.899 225.045 138.001Z" fill="white"/>
<path d="M143.762 82.75C144.271 82.75 144.679 82.75 145.087 82.75C156.043 82.75 167 82.75 178.008 82.75C181.015 82.75 183.919 83.0051 186.722 84.2805C192.124 86.7293 194.57 91.1678 194.978 96.8307C195.488 103.82 192.379 108.82 186.366 112.136C185.907 112.391 185.397 112.646 184.837 112.952C188.812 119.482 192.685 125.91 196.66 132.441C196.15 132.492 195.793 132.543 195.386 132.543C190.188 132.543 184.99 132.543 179.792 132.594C178.874 132.594 178.416 132.288 178.008 131.522C174.95 126.114 171.842 120.707 168.784 115.248C168.325 114.432 167.816 114.125 166.847 114.125C164.758 114.176 162.617 114.125 160.375 114.125C160.375 120.247 160.375 126.319 160.375 132.441C154.769 132.441 149.317 132.441 143.813 132.441C143.762 115.962 143.762 99.4326 143.762 82.75ZM160.426 100.963C160.732 101.014 160.987 101.065 161.242 101.065C166.032 101.065 170.771 101.065 175.562 101.065C177.345 101.065 178.416 100.045 178.416 98.4632C178.416 96.8307 177.447 95.9124 175.562 95.8614C173.014 95.8614 170.517 95.8614 167.968 95.8614C165.471 95.8614 163.025 95.8614 160.426 95.8614C160.426 97.647 160.426 99.2795 160.426 100.963Z" fill="white"/>
<path d="M102.738 114.125C102.738 120.35 102.738 126.319 102.738 132.441C97.1833 132.441 91.7304 132.441 86.2266 132.441C86.2266 115.911 86.2266 99.4326 86.2266 82.75C86.6852 82.75 87.1439 82.75 87.6025 82.75C98.6102 82.75 109.618 82.75 120.626 82.75C124.601 82.75 128.474 83.3112 131.735 85.76C136.475 89.3312 137.851 94.3819 137.341 99.9427C136.831 105.708 133.519 109.636 128.474 112.238C128.117 112.442 127.709 112.595 127.2 112.85C131.124 119.38 135.048 125.808 139.023 132.39C138.513 132.441 138.207 132.492 137.902 132.492C132.653 132.492 127.403 132.492 122.154 132.492C121.288 132.492 120.829 132.237 120.422 131.471C117.313 125.961 114.153 120.503 111.045 114.993C110.637 114.33 110.28 114.023 109.465 114.023C107.274 114.176 105.082 114.125 102.738 114.125ZM102.789 101.014C108.191 101.014 113.491 101.065 118.791 100.963C119.861 100.963 120.524 100.096 120.728 99.0244C121.135 97.1368 120.065 95.8614 118.027 95.8614C113.236 95.8104 108.395 95.8614 103.604 95.8614C103.299 95.8614 103.044 95.9634 102.738 95.9634C102.789 97.698 102.789 99.3305 102.789 101.014Z" fill="white"/>
<path d="M152.884 18.7236C176.632 38.8753 200.381 59.0781 224.129 79.2298C224.027 79.3829 223.874 79.5359 223.772 79.689C215.873 73.4139 207.974 67.1898 200.126 60.8637C192.176 54.4866 184.277 48.0584 176.378 41.6303C168.53 35.2021 160.681 28.774 152.884 22.3969C116.906 53.0581 80.9267 83.7193 44.9988 114.432C44.9478 114.329 44.8459 114.278 44.7949 114.176C45.7122 112.289 143.355 26.0701 152.884 18.7236Z" fill="white"/>
<path d="M167.459 152.49C166.593 152.49 165.879 152.49 165.166 152.49C165.166 147.644 165.166 142.848 165.166 137.95C166.236 137.95 167.255 137.95 168.428 137.95C169.294 141.318 170.211 144.685 171.129 148.103C171.23 148.103 171.281 148.103 171.383 148.103C171.842 146.317 172.301 144.583 172.759 142.797C172.963 142.032 173.167 141.318 173.32 140.552C174.084 137.44 174.084 137.44 177.448 138.001C177.448 142.797 177.448 147.593 177.448 152.439C176.683 152.439 175.97 152.439 175.154 152.439C175.154 148.97 175.154 145.552 175.154 142.185C175.053 142.185 175.002 142.185 174.9 142.134C174.288 144.379 173.728 146.572 173.116 148.817C172.861 149.684 172.606 150.552 172.454 151.419C172.301 152.235 171.944 152.541 171.078 152.541C170.16 152.541 170.058 152.031 169.905 151.368C169.141 148.409 168.377 145.45 167.408 142.542C167.459 145.858 167.459 149.123 167.459 152.49Z" fill="white"/>
<path d="M154.975 71.4235C154.975 67.7503 154.975 64.1281 154.975 60.5059C158.338 60.5059 161.6 60.5059 165.014 60.5059C165.014 64.1791 165.014 67.7503 165.014 71.4235C161.702 71.4235 158.44 71.4235 154.975 71.4235Z" fill="white"/>
<path d="M155.025 56.7309C155.025 53.1087 155.025 49.4865 155.025 45.8643C158.389 45.8643 161.65 45.8643 165.014 45.8643C165.014 49.4865 165.014 53.0577 165.014 56.7309C161.752 56.7309 158.44 56.7309 155.025 56.7309Z" fill="white"/>
<path d="M140.705 45.8135C144.069 45.8135 147.279 45.8135 150.643 45.8135C150.643 49.4357 150.643 53.0579 150.643 56.7311C147.381 56.7311 144.069 56.7311 140.705 56.7311C140.705 53.1089 140.705 49.5377 140.705 45.8135Z" fill="white"/>
<path d="M150.643 60.5059C150.643 64.1791 150.643 67.7503 150.643 71.4235C147.33 71.4235 144.018 71.4235 140.654 71.4235C140.654 67.8013 140.654 64.1791 140.654 60.5059C143.967 60.5059 147.228 60.5059 150.643 60.5059Z" fill="white"/>
<path d="M130.462 144.378C129.137 140.96 129.392 138.919 131.328 137.899C132.806 137.133 134.743 137.44 135.66 138.664C136.985 140.45 136.425 142.49 133.724 144.99C134.182 145.653 134.641 146.316 135.252 147.184C135.864 145.551 136.374 143.817 138.718 144.786C138.208 145.857 137.75 146.98 137.138 148.051C136.73 148.816 136.832 149.377 137.342 149.99C137.953 150.704 138.412 151.52 138.973 152.285C137.087 152.847 136.476 152.694 135.252 151.214C134.284 152.387 133.01 153.153 131.481 152.796C130.666 152.592 129.749 152.183 129.188 151.571C127.353 149.735 128.016 146.623 130.462 144.378ZM131.787 146.214C130.513 147.133 130.156 148.765 130.87 149.939C131.379 150.755 132.348 151.01 133.061 150.5C133.826 149.939 134.08 149.326 133.367 148.51C132.806 147.745 132.297 146.98 131.787 146.214ZM132.246 143.357C133.724 142.745 134.386 141.725 134.029 140.603C134.029 140.552 133.978 140.501 133.978 140.45C133.571 139.735 132.501 139.684 132.042 140.347C131.991 140.45 131.94 140.501 131.94 140.603C131.889 141.47 132.144 142.388 132.246 143.357Z" fill="white"/>
<path d="M193.195 137.899C196.355 138.052 199.667 137.083 201.451 140.501C203.133 143.766 203.184 147.286 201.196 150.449C199.311 153.408 196.1 152.439 193.246 152.592C193.195 147.643 193.195 142.848 193.195 137.899ZM195.692 150.194C197.731 150.551 198.954 149.939 199.566 148.103C200.228 146.113 200.228 144.123 199.515 142.185C198.852 140.45 197.578 139.838 195.692 140.348C195.692 143.613 195.692 146.929 195.692 150.194Z" fill="white"/>
<path d="M20.5382 142.134C21.0988 144.072 21.1497 146.164 20.5892 148.154C20.3853 148.97 20.1305 149.735 19.7738 150.45C18.0411 153.766 13.6584 153.919 11.8238 150.705C9.78531 147.133 9.78531 143.358 11.8238 139.787C13.5565 136.726 17.8372 136.726 19.5699 139.787C20.0286 140.501 20.2834 141.266 20.5382 142.134ZM17.8882 148.358C18.4997 146.419 18.4997 144.276 17.9392 142.338C17.8372 141.981 17.6843 141.573 17.5315 141.215C16.818 139.583 15.0343 139.481 14.0151 140.858C12.7411 142.593 12.6901 147.593 13.9132 149.429C14.9834 151.011 16.6651 151.011 17.4805 149.327C17.6334 148.97 17.7863 148.664 17.8882 148.358Z" fill="white"/>
<path d="M61.8664 152.49C61.5097 152.541 61.3568 152.541 61.1529 152.592C59.726 152.898 58.9616 152.337 58.6049 150.908C58.2991 149.684 57.6876 148.511 57.3308 147.286C57.076 146.419 56.6174 146.215 55.7001 146.572C55.7001 148.511 55.7001 150.449 55.7001 152.541C54.8337 152.541 54.1203 152.541 53.2539 152.541C53.2539 147.745 53.2539 142.95 53.2539 138.052C55.0885 138.052 56.8722 137.899 58.6049 138.103C60.1847 138.256 61.1529 139.43 61.4078 141.062C61.8154 143.256 61.2039 144.684 59.3183 146.011C60.1337 148.052 61.0001 150.194 61.8664 152.49ZM55.7001 144.48C56.9231 144.48 58.2481 144.786 58.7068 143.46C59.0126 142.695 58.9616 141.521 58.6049 140.807C58.0443 139.736 56.8212 139.94 55.7001 140.144C55.7001 141.572 55.7001 142.899 55.7001 144.48Z" fill="white"/>
<path d="M145.139 137.95C146.871 137.95 148.553 137.848 150.184 138.001C151.815 138.154 152.885 139.226 153.242 140.705C153.751 143.001 153.191 144.532 151.203 145.96C152.018 148.052 152.834 150.194 153.649 152.337C151.56 152.949 151.203 152.796 150.49 150.858C150.031 149.633 149.572 148.46 149.165 147.235C148.91 146.419 148.451 146.164 147.483 146.521C147.483 147.439 147.483 148.46 147.483 149.429C147.483 150.398 147.483 151.368 147.483 152.49C146.668 152.49 145.954 152.49 145.139 152.49C145.139 147.695 145.139 142.95 145.139 137.95ZM147.585 144.429C148.706 144.48 149.98 144.736 150.541 143.613C150.897 142.848 150.897 141.624 150.541 140.858C150.031 139.736 148.757 140.042 147.585 140.093C147.585 141.573 147.585 142.95 147.585 144.429Z" fill="white"/>
<path d="M249.101 139.327C248.642 139.888 248.234 140.449 247.827 140.96C245.279 139.123 243.291 139.786 242.782 142.847C242.476 144.582 242.629 146.418 242.934 148.204C243.087 149.02 243.954 149.939 244.718 150.347C246.094 151.061 246.96 150.347 246.96 148.816C246.96 148.051 246.96 147.286 246.96 146.469C246.349 146.418 245.839 146.367 245.279 146.316C245.279 145.653 245.279 145.041 245.279 144.327C246.604 144.327 247.878 144.327 249.254 144.327C249.254 146.673 249.305 148.918 249.203 151.214C249.203 151.52 248.795 151.979 248.489 152.132C245.788 153.765 242.323 152.846 240.998 150.041C239.367 146.622 239.367 143.102 241.304 139.786C243.036 136.929 246.807 136.725 249.101 139.327Z" fill="white"/>
<path d="M162.566 150.296C162.566 151.164 162.566 151.776 162.566 152.49C160.324 152.49 158.184 152.49 155.941 152.49C155.941 147.643 155.941 142.848 155.941 137.95C158.082 137.95 160.171 137.95 162.363 137.95C162.363 138.613 162.363 139.277 162.363 140.093C161.038 140.093 159.713 140.093 158.337 140.093C158.337 141.419 158.337 142.542 158.337 143.868C159.56 143.868 160.783 143.868 162.057 143.868C162.057 144.633 162.057 145.246 162.057 145.96C160.834 145.96 159.611 145.96 158.337 145.96C158.337 147.439 158.337 148.766 158.337 150.245C159.764 150.296 161.139 150.296 162.566 150.296Z" fill="white"/>
<path d="M205.172 137.95C207.363 137.95 209.402 137.95 211.542 137.95C211.542 138.664 211.542 139.328 211.542 140.093C210.217 140.093 208.892 140.093 207.516 140.093C207.516 141.368 207.516 142.542 207.516 143.868C208.739 143.868 209.962 143.868 211.236 143.868C211.236 144.633 211.236 145.195 211.236 145.96C210.013 145.96 208.841 145.96 207.516 145.96C207.516 147.439 207.516 148.766 207.516 150.245C208.892 150.245 210.268 150.245 211.746 150.245C211.746 151.062 211.746 151.725 211.746 152.49C209.555 152.49 207.414 152.49 205.121 152.49C205.172 147.643 205.172 142.848 205.172 137.95Z" fill="white"/>
<path d="M214.293 137.95C215.159 137.95 215.873 137.95 216.79 137.95C216.79 138.613 216.79 139.226 216.79 139.889C216.79 143.001 216.79 146.062 216.79 149.174C216.79 149.99 216.994 150.347 217.86 150.296C218.778 150.245 219.746 150.296 220.765 150.296C220.765 151.062 220.765 151.776 220.765 152.541C218.625 152.541 216.535 152.541 214.344 152.541C214.293 147.643 214.293 142.848 214.293 137.95Z" fill="white"/>
<path d="M225.045 138.001C225.045 142.899 225.045 147.643 225.045 152.541C224.23 152.541 223.517 152.541 222.701 152.541C222.701 147.694 222.701 142.899 222.701 138.001C223.415 138.001 224.179 138.001 225.045 138.001Z" fill="white"/>
<path d="M9.42691 150.909C8.35672 153.255 4.2798 153.766 2.19037 151.266C-0.25578 148.358 -0.306742 142.083 2.13941 139.175C4.12691 136.828 7.5923 136.879 9.42691 139.328C9.01922 139.838 8.61153 140.348 8.10191 140.96C7.8471 140.756 7.64326 140.552 7.38845 140.399C6.11441 139.43 4.73845 139.685 3.82114 141.011C2.5471 143.001 2.59807 147.542 3.92307 149.48C4.9423 150.909 6.21633 150.909 8.15287 149.429C8.56056 149.939 9.01922 150.45 9.42691 150.909Z" fill="white"/>
<path d="M30.4755 148.052C30.4755 144.889 30.4755 141.165 30.4755 137.899C31.2399 137.899 31.8515 137.899 32.5649 137.899C32.5649 142.695 32.5649 147.695 32.5649 152.49C30.8322 152.541 30.4755 152.541 29.864 152.49C28.7938 149.837 27.112 145.552 25.787 142.95C25.787 146.113 25.787 149.276 25.787 152.49C25.0226 152.49 24.3601 152.49 23.5957 152.49C23.5957 147.695 23.5957 142.899 23.5957 137.899C24.3601 137.899 25.838 137.899 26.2967 137.899C27.3669 140.45 28.6919 143.817 29.7111 146.368C29.864 146.776 30.0678 147.185 30.2717 147.644C30.3226 147.797 30.3736 147.95 30.4755 148.052Z" fill="white"/>
<path d="M34.7559 151.214C35.1636 150.602 35.5712 150.092 36.0299 149.48C36.4886 149.786 36.8962 150.092 37.3549 150.296C38.4251 150.857 39.5972 150.602 40.1068 149.786C40.7184 148.765 40.5145 147.592 39.4443 146.827C38.7818 146.368 38.0684 146.011 37.3549 145.602C35.6732 144.582 35.1126 143.052 35.3164 141.215C35.4693 139.633 36.2337 138.46 37.7626 137.848C39.4953 137.185 41.1261 137.389 42.6039 138.613C42.7059 138.664 42.7568 138.817 42.8587 139.021C42.4511 139.531 42.0434 140.093 41.6357 140.654C41.3299 140.45 41.0751 140.297 40.8203 140.144C39.6991 139.531 38.527 139.735 37.9664 140.603C37.3549 141.623 37.6097 142.796 38.6799 143.511C39.2405 143.919 39.852 144.225 40.4636 144.531C42.2472 145.551 43.0626 147.082 42.7568 149.174C42.502 150.857 41.6357 152.184 39.903 152.643C38.0174 153.255 36.2337 152.796 34.7559 151.214Z" fill="white"/>
<path d="M63.9058 137.95C64.7212 137.95 65.4347 137.95 66.2501 137.95C66.2501 140.909 66.2501 143.817 66.2501 146.725C66.2501 147.541 66.352 148.358 66.5558 149.123C66.7597 149.99 67.4222 150.5 68.3395 150.5C69.3078 150.5 69.9193 150.041 70.1231 149.174C70.327 148.409 70.4289 147.592 70.4289 146.776C70.4799 143.868 70.4289 140.96 70.4289 137.95C71.2953 137.95 72.0597 137.95 72.7731 137.95C72.7731 141.674 72.977 145.348 72.7222 149.021C72.5183 151.674 70.7347 152.949 68.1356 152.898C65.7405 152.847 64.0587 151.521 63.9058 148.97C63.753 145.348 63.9058 141.725 63.9058 137.95Z" fill="white"/>
<path d="M83.7804 150.909C82.7102 153.255 78.6333 153.766 76.5439 151.266C74.0977 148.358 74.0468 142.083 76.4929 139.175C78.4804 136.828 81.9458 136.879 83.7804 139.328C83.3727 139.838 82.965 140.348 82.4554 140.96C82.2006 140.756 81.9968 140.552 81.742 140.399C80.4679 139.43 79.092 139.685 78.1747 141.011C76.8497 142.95 76.9006 147.491 78.2256 149.429C79.2449 150.858 80.5189 150.858 82.4554 149.378C82.965 149.939 83.3727 150.45 83.7804 150.909Z" fill="white"/>
<path d="M84.8008 137.95C87.3998 137.95 89.9479 137.95 92.5469 137.95C92.5469 138.613 92.5469 139.226 92.5469 139.94C91.7316 139.991 90.9671 139.991 90.0498 140.042C90.0498 144.174 89.9989 148.307 89.9989 152.49C89.1325 152.49 88.3681 152.49 87.5017 152.49C87.5017 148.358 87.5527 144.225 87.5527 140.042C86.5844 139.991 85.7181 140.042 84.8517 139.991C84.8008 139.328 84.8008 138.715 84.8008 137.95Z" fill="white"/>
<path d="M94.4316 137.95C95.247 137.95 95.9095 137.95 96.7249 137.95C96.7249 142.797 96.7249 147.592 96.7249 152.49C96.0114 152.49 95.298 152.49 94.4316 152.49C94.4316 147.643 94.4316 142.848 94.4316 137.95Z" fill="white"/>
<path d="M109.466 142.134C110.027 144.072 110.077 146.164 109.517 148.154C109.313 148.97 109.058 149.735 108.702 150.45C106.969 153.766 102.586 153.919 100.752 150.705C98.713 147.133 98.713 143.358 100.752 139.787C102.484 136.726 106.765 136.726 108.498 139.787C108.905 140.501 109.211 141.266 109.466 142.134ZM106.816 148.358C107.427 146.419 107.427 144.276 106.867 142.338C106.765 141.981 106.612 141.573 106.459 141.215C105.746 139.583 103.962 139.481 102.943 140.858C101.669 142.593 101.618 147.593 102.841 149.429C103.911 151.011 105.593 151.011 106.408 149.327C106.561 148.97 106.714 148.664 106.816 148.358Z" fill="white"/>
<path d="M43.7754 137.95C46.3744 137.95 48.9225 137.95 51.5215 137.95C51.5215 138.613 51.5215 139.226 51.5215 139.94C50.7062 139.991 49.9417 139.991 49.0244 140.042C49.0244 144.174 48.9735 148.307 48.9735 152.49C48.1071 152.49 47.3427 152.49 46.4763 152.49C46.4763 148.358 46.5273 144.225 46.5273 140.042C45.559 139.991 44.6927 140.042 43.8264 139.991C43.7754 139.328 43.7754 138.715 43.7754 137.95Z" fill="white"/>
<path d="M119.352 148.052C119.352 144.889 119.352 141.165 119.352 137.899C120.117 137.899 120.728 137.899 121.442 137.899C121.442 142.695 121.442 147.695 121.442 152.49C119.709 152.541 119.352 152.541 118.741 152.49C117.671 149.837 115.989 145.552 114.664 142.95C114.664 146.113 114.664 149.276 114.664 152.49C113.9 152.49 113.237 152.49 112.473 152.49C112.473 147.695 112.473 142.899 112.473 137.899C113.237 137.899 114.715 137.899 115.174 137.899C116.244 140.45 117.569 143.817 118.588 146.368C118.741 146.776 118.945 147.185 119.149 147.644C119.2 147.797 119.302 147.95 119.352 148.052Z" fill="white"/>
<path d="M190.239 142.134C190.8 144.072 190.851 146.164 190.29 148.154C190.086 148.97 189.832 149.735 189.475 150.45C187.742 153.766 183.36 153.919 181.525 150.705C179.486 147.133 179.486 143.358 181.525 139.787C183.258 136.726 187.538 136.726 189.271 139.787C189.679 140.501 189.985 141.266 190.239 142.134ZM187.538 148.358C188.15 146.419 188.15 144.276 187.589 142.338C187.487 141.981 187.335 141.573 187.182 141.215C186.468 139.583 184.685 139.481 183.665 140.858C182.391 142.593 182.34 147.593 183.563 149.429C184.634 151.011 186.315 151.011 187.131 149.327C187.335 148.97 187.436 148.664 187.538 148.358Z" fill="white"/>
<path d="M235.239 148.052C235.239 144.889 235.239 141.165 235.239 137.899C236.004 137.899 236.615 137.899 237.329 137.899C237.329 142.695 237.329 147.695 237.329 152.49C235.596 152.541 235.239 152.541 234.628 152.49C233.557 149.837 231.876 145.552 230.551 142.95C230.551 146.113 230.551 149.276 230.551 152.49C229.786 152.49 229.124 152.49 228.359 152.49C228.359 147.695 228.359 142.899 228.359 137.899C229.124 137.899 230.602 137.899 231.06 137.899C232.131 140.45 233.456 143.817 234.475 146.368C234.628 146.776 234.831 147.185 235.035 147.644C235.086 147.797 235.188 147.95 235.239 148.052Z" fill="white"/>
<path d="M250.68 82.5455C255.164 86.2187 259.598 89.994 264.032 93.7182C264.337 93.9733 264.694 94.1264 265 94.3304V99.2281C261.586 99.2281 258.222 99.126 254.808 99.2281C253.381 99.2791 252.209 98.922 251.24 97.9016C250.833 97.4935 250.323 97.1364 249.61 96.5752L231.671 81.6272C219.899 71.8319 208.127 62.0367 196.355 52.2924C185.602 43.3645 174.849 34.4365 164.096 25.5595C160.376 22.4475 156.605 19.3865 152.732 16.1214C112.829 50.6599 73.0279 85.1984 33.176 119.737C33.2269 119.839 33.2779 119.941 33.2779 120.043H81.8952V132.287H0C0.560577 131.726 1.17212 131.216 1.52885 130.91C9.275 124.175 17.0721 117.441 24.8183 110.707C35.775 101.167 46.7827 91.6776 57.7394 82.1374C70.0211 71.4748 82.3538 60.8123 94.6865 50.1497C108.089 38.5178 121.441 26.937 134.844 15.3561C135.15 15.101 135.456 14.7949 135.812 14.5398C136.832 13.6726 137.8 12.8053 138.819 11.938L144.527 7.09136L152.783 0L169.447 14.2337H169.396C184.481 26.886 199.616 39.5892 214.701 52.2414C220.154 56.7819 225.556 61.3735 231.009 65.914L250.68 82.5455Z" fill="white"/>
</g>
<defs>
<clipPath id="clip0_282_5268">
<rect width="265" height="153" fill="white"/>
</clipPath>
</defs>
</svg>
