<svg width="733" height="696" viewBox="0 0 733 696" fill="none" xmlns="http://www.w3.org/2000/svg">
<rect x="1.5" y="1.5" width="730" height="693" rx="33.5" fill="#FFDB1F" stroke="black" stroke-width="3"/>
<path d="M57.4943 49.5464C58.199 48.1382 58.9036 46.3779 58.9036 44.2656C58.9036 37.9287 53.9709 33 47.6288 33C45.8671 33 44.1054 33.3521 42.3438 34.4082L57.4943 49.5464Z" fill="black"/>
<path d="M37.7617 38.6289C36.7047 40.3892 36 42.1494 36 44.2617C36 50.5986 40.9327 55.5273 47.2748 55.5273C49.3888 55.5273 51.1505 54.8232 52.9122 53.7671L37.7617 38.6289Z" fill="black"/>
<path d="M701.494 49.5464C702.199 48.1382 702.904 46.3779 702.904 44.2656C702.904 37.9287 697.971 33 691.629 33C689.867 33 688.105 33.3521 686.344 34.4082L701.494 49.5464Z" fill="black"/>
<path d="M681.762 38.6289C680.705 40.3892 680 42.1494 680 44.2617C680 50.5986 684.933 55.5273 691.275 55.5273C693.389 55.5273 695.151 54.8232 696.912 53.7671L681.762 38.6289Z" fill="black"/>
<path d="M57.4943 657.546C58.199 656.138 58.9036 654.378 58.9036 652.266C58.9036 645.929 53.9709 641 47.6288 641C45.8671 641 44.1054 641.352 42.3438 642.408L57.4943 657.546Z" fill="black"/>
<path d="M37.7617 646.629C36.7047 648.389 36 650.149 36 652.262C36 658.599 40.9327 663.527 47.2748 663.527C49.3888 663.527 51.1505 662.823 52.9122 661.767L37.7617 646.629Z" fill="black"/>
<path d="M701.494 657.546C702.199 656.138 702.904 654.378 702.904 652.266C702.904 645.929 697.971 641 691.629 641C689.867 641 688.105 641.352 686.344 642.408L701.494 657.546Z" fill="black"/>
<path d="M681.762 646.629C680.705 648.389 680 650.149 680 652.262C680 658.599 684.933 663.527 691.275 663.527C693.389 663.527 695.151 662.823 696.912 661.767L681.762 646.629Z" fill="black"/>
<path d="M57.4943 348.546C58.199 347.138 58.9036 345.378 58.9036 343.266C58.9036 336.929 53.9709 332 47.6288 332C45.8671 332 44.1054 332.352 42.3438 333.408L57.4943 348.546Z" fill="black"/>
<path d="M37.7617 337.629C36.7047 339.389 36 341.149 36 343.262C36 349.599 40.9327 354.527 47.2748 354.527C49.3888 354.527 51.1505 353.823 52.9122 352.767L37.7617 337.629Z" fill="black"/>
<path d="M701.494 348.546C702.199 347.138 702.904 345.378 702.904 343.266C702.904 336.929 697.971 332 691.629 332C689.867 332 688.105 332.352 686.344 333.408L701.494 348.546Z" fill="black"/>
<path d="M681.762 337.629C680.705 339.389 680 341.149 680 343.262C680 349.599 684.933 354.527 691.275 354.527C693.389 354.527 695.151 353.823 696.912 352.767L681.762 337.629Z" fill="black"/>
</svg>
