<svg width="30" height="29" viewBox="0 0 30 29" fill="none" xmlns="http://www.w3.org/2000/svg">
<path d="M15.1727 0.164062C23.0494 0.164062 29.4343 6.54897 29.4343 14.4256C29.4343 22.3023 23.0494 28.6872 15.1727 28.6872C12.6524 28.6913 10.1764 28.0243 7.99916 26.7548L0.916858 28.6872L2.84502 21.6021C1.57445 19.4241 0.906942 16.9471 0.911153 14.4256C0.911153 6.54897 7.29606 0.164062 15.1727 0.164062ZM10.3124 7.7227L10.0272 7.73411C9.84249 7.74535 9.66203 7.79386 9.49662 7.87672C9.34191 7.96433 9.20069 8.07385 9.07733 8.20189C8.90619 8.36304 8.80921 8.5028 8.7051 8.63829C8.1776 9.32413 7.89358 10.1662 7.8979 11.0314C7.90075 11.7302 8.0833 12.4105 8.36853 13.0465C8.95183 14.3329 9.91163 15.6949 11.1781 16.9571C11.4833 17.2608 11.7828 17.566 12.1051 17.8498C13.6787 19.2353 15.5539 20.2344 17.5815 20.7678L18.3916 20.8918C18.6554 20.9061 18.9192 20.8861 19.1845 20.8733C19.5999 20.8519 20.0054 20.7394 20.3725 20.5439C20.5593 20.4477 20.7415 20.343 20.9187 20.2301C20.9187 20.2301 20.98 20.1902 21.097 20.1017C21.2895 19.9591 21.4079 19.8579 21.5676 19.691C21.686 19.5684 21.7887 19.4243 21.8671 19.2603C21.9783 19.0278 22.0896 18.5843 22.1352 18.2149C22.1695 17.9326 22.1595 17.7785 22.1552 17.683C22.1495 17.5304 22.0226 17.3721 21.8842 17.305L21.0542 16.9328C21.0542 16.9328 19.8134 16.3923 19.0547 16.0472C18.9753 16.0125 18.8903 15.9927 18.8037 15.9887C18.7061 15.9787 18.6076 15.9897 18.5146 16.0209C18.4216 16.0521 18.3364 16.1029 18.2646 16.1698C18.2575 16.167 18.162 16.2483 17.1308 17.4976C17.0717 17.5771 16.9901 17.6372 16.8967 17.6702C16.8032 17.7032 16.702 17.7077 16.606 17.683C16.5131 17.6581 16.4221 17.6266 16.3336 17.5889C16.1568 17.5147 16.0954 17.4862 15.9742 17.4348C15.1557 17.0776 14.3979 16.595 13.728 16.0044C13.5483 15.8475 13.3815 15.6764 13.2103 15.5109C12.6493 14.9736 12.1603 14.3657 11.7557 13.7026L11.6715 13.5671C11.6111 13.4761 11.5622 13.3778 11.526 13.2747C11.4718 13.0651 11.613 12.8968 11.613 12.8968C11.613 12.8968 11.9596 12.5174 12.1207 12.3121C12.2776 12.1124 12.4103 11.9185 12.4958 11.7801C12.6641 11.5091 12.7169 11.231 12.6285 11.0157C12.2291 10.0402 11.8156 9.06899 11.3906 8.10491C11.3064 7.9138 11.0568 7.77689 10.8301 7.74979C10.7531 7.74124 10.6761 7.73268 10.599 7.72697C10.4075 7.71746 10.2156 7.71937 10.0243 7.73268L10.3124 7.7227Z" fill="white"/>
</svg>
